<?xml version="1.0" encoding="utf-8"?>
<!-- Generator: Adobe Illustrator 15.1.0, SVG Export Plug-In  -->
<!DOCTYPE svg PUBLIC "-//W3C//DTD SVG 1.1//EN" "http://www.w3.org/Graphics/SVG/1.1/DTD/svg11.dtd" [
	<!ENTITY ns_flows "http://ns.adobe.com/Flows/1.0/">
]>
<svg version="1.1"
	 xmlns="http://www.w3.org/2000/svg" xmlns:xlink="http://www.w3.org/1999/xlink" xmlns:a="http://ns.adobe.com/AdobeSVGViewerExtensions/3.0/"
	 x="0px" y="0px" width="770px" height="515px" viewBox="-114.635 -111.45 770 515"
	 overflow="visible" enable-background="new -114.635 -111.45 770 515" xml:space="preserve">
<defs>
</defs>
<path id="XMLID_459_" opacity="0.12" d="M540.73,374.92c0,0-121.047,14.63-270.365,14.63S0,374.92,0,374.92
	s121.046-14.63,270.365-14.63S540.73,374.92,540.73,374.92z"/>
<path id="XMLID_458_" fill="#F79178" d="M225.749,143.7c-2.329-6.883-4.913-22.92-6.729-39.363
	c-2.421-0.711-4.851-1.398-7.288-2.062c-1.539-0.419-3.086-0.854-4.635-1.292c0.565,5.518,1.39,12.87,2.438,20.257
	c1.242,8.749,2.552,15.86,3.896,21.138c2.316,9.098,4.762,13.143,8.726,14.429c0.902,0.292,1.78,0.43,2.635,0.43
	c6.88,0,12.319-8.898,16.802-17.901c4.08-8.192,7.188-16.53,7.319-16.88l-10.805-4.013
	C234.237,128.863,229.114,139.184,225.749,143.7z"/>
<path id="XMLID_457_" fill="#F9A184" d="M211.049,79.696c-1.912,0.072-2.336,0.284-2.336,0.284s-5.491-1.75-7.733-1.336
	c-1.676,0.31-3.782,12.547-2.25,12.925c1.193,0.295,0.979-0.229,1.915-1.771c0.955-1.575,2.555-8.783,2.555-8.783
	s-1.583,0.005-1.781,1.198c-0.709,4.266-1.405,9.042-1.588,10.553c-0.2,1.641,1.025,2.632,2.809,0.383
	c0.532-0.671,2.038-7.609,2.038-7.609s-2.394,8.519-2.31,8.993c0.284,1.602,2.136,0.725,2.968-0.475
	c1.027-1.48,2.015-4.468,3.304-6.859c0.71-1.318,0.284-1.423,0.284-1.423s-3.773,7.036-3.391,7.979
	c0.383,0.943,1.418,0.926,3.391-0.606c1.541-1.197,2.954-4.484,3.449-4.555c0.496-0.071,7.403,7.263,8.713,8.289
	c0,0-0.135-5.495-0.814-7.516C218.31,83.527,212.962,79.625,211.049,79.696z"/>
<path id="XMLID_456_" fill="#ED8C73" d="M218.143,237.725c0,0-1.182-6.372-4.816-6.105c-4.425,0.324,1.102,7.605,1.102,7.605
	l7.18-1.348c0,0-0.505-8.993-4.334-7.302C215.906,231.18,218.143,237.725,218.143,237.725z"/>
<path id="XMLID_455_" fill="#F9A184" d="M231.077,212.972c0,0,0.26,6.852,1.029,10.235c0.768,3.385-3.347,10.242-3.962,11.169
	c-0.564,0.851-1.793,1.257-1.793,1.257s-2.028,1.548-3.087,2.736s-3.287,1.078-3.287,1.078s-1.757,0.833-2.982,1.827
	c-1.225,0.994-4.49-2.159-6.205-2.652c-1.715-0.495-1.62-1.706,0.026-2.667c1.646-0.962,4.884,1.713,4.884,1.713
	s1.738-2.164,2.653-3.062c0.916-0.896-0.534-5.365-1.122-6.377c-0.587-1.013-1.877-2.484-2.63-0.474
	c-0.404,1.078-0.079,6.017-2.58,7.095c-2.501,1.077-3.313-0.379-3.313-0.379s1.415-3.7,1.012-6.331
	c-0.402-2.631,3.495-10.796,6.501-12.197c3.007-1.402,2.172-4.271,2.172-4.271L231.077,212.972z"/>
<path id="XMLID_454_" fill="#F9A184" d="M231.29,216.629l-12.804-3.752c-0.228-11.702-2.199-18.146-2.783-28.487
	c-1.805-31.933-6.214-59.959-6.255-60.314l17.176-1.974c0.092,0.803,1.638,18.842,2.063,31.391c0,0,3.848,12.768,4.168,27.376
	C233.109,192.538,232.201,203.957,231.29,216.629z"/>
<path id="XMLID_453_" fill="#CAD7D8" d="M193.283,83.604c0,0,24.752,0.811,30.926,16.315c6.175,15.504,6.447,33.399,6.447,33.399
	l-18.522,4.832L193.283,83.604z"/>
<path id="XMLID_452_" fill="#F79178" d="M304.331,126.588c0,0-24.757,54.042-5.237,50.901c15.013-2.416,25.385-23.604,25.385-23.604
	l-3.184-9.109c0,0-2.133-0.161-5.345,4.028l3.888-9.581L304.331,126.588z"/>
<path id="XMLID_451_" fill="#535585" d="M329.939,96.589c-12.307,2.993-21.665,17.087-30.846,31.986l20.226,13.406
	c0,0,4.702-8.484,6.518-14.07C327.652,122.326,337.613,94.724,329.939,96.589z"/>
<path id="XMLID_450_" fill="#493939" d="M391.164,208.937l-0.957,20.947c0,0-63.081,4.028-65.869-2.672
	c-2.137-5.135-0.512-17.924-0.512-17.924L391.164,208.937z"/>
<polygon id="XMLID_449_" fill="#3C3D3F" points="332.065,342.488 333.729,356.354 345.548,357.151 344.042,341.171 "/>
<path id="XMLID_448_" fill="#302525" d="M344.982,351.143c-8.582,3.021-11.924-0.304-11.924-0.304
	c-2.754,2.318-17.284,13.806-23.421,11.753c-6.138-2.052-9.174,1.688-9.222,5.831s-0.048,4.143-0.048,4.143
	s12.54,5.337,23.652,2.029c11.112-3.307,11.112-3.307,11.112-3.307l0.044,1.114c0.03,0.755,0.694,1.343,1.482,1.313l10.877-0.399
	c1.011-0.037,1.838-0.775,1.942-1.738C349.979,366.944,350.803,354.104,344.982,351.143z"/>
<polygon id="XMLID_447_" fill="#3C3D3F" points="374.736,343.353 376.395,357.218 388.214,358.02 386.713,342.038 "/>
<path id="XMLID_446_" fill="#3A2D2D" d="M387.65,352.011c-8.583,3.017-11.924-0.309-11.924-0.309
	c-2.755,2.318-17.189,14.733-23.326,12.679c-6.137-2.054-9.271,0.753-9.322,4.895c-0.05,4.144-0.05,4.144-0.05,4.144
	s12.539,5.341,23.652,2.037s11.113-3.304,11.113-3.304l0.045,1.114c0.029,0.755,0.692,1.344,1.48,1.314l10.878-0.396
	c1.011-0.038,1.837-0.775,1.941-1.739C392.642,367.813,393.47,354.973,387.65,352.011z"/>
<path id="XMLID_445_" fill="#493939" d="M326.708,345.66c-7.69-71.32-2.947-130.187-2.688-132.664l23.354,6.151
	c0,0,3.454-0.88,3.454-0.879v1.089c0,0.747-8.408,58.64-0.999,126.303H326.708z"/>
<path id="XMLID_444_" fill="#493939" d="M391.164,220.011c-8.18-0.458-19.322,0.339-27.471-0.558
	c-0.332,3.817-4.36,65.271,6.245,127.514l22.303-1.062C382.742,290.159,390.44,228.413,391.164,220.011z"/>
<path id="XMLID_443_" fill="#493939" d="M391.164,208.937l-0.957,20.947c0,0-63.081,4.028-65.869-2.672
	c-2.137-5.135-0.512-17.924-0.512-17.924L391.164,208.937z"/>
<path id="XMLID_442_" fill="#493939" d="M326.708,345.66c-7.69-71.32-2.947-130.187-2.688-132.664l23.354,6.151
	c0,0,3.454-0.88,3.454-0.879v1.089c0,0.747-8.408,58.64-0.999,126.303H326.708z"/>
<path id="XMLID_441_" fill="#493939" d="M391.164,220.011c-8.18-0.458-19.322,0.339-27.471-0.558
	c-0.332,3.817-4.36,65.271,6.245,127.514l22.303-1.062C382.742,290.159,390.44,228.413,391.164,220.011z"/>
<path id="XMLID_440_" opacity="0.12" d="M323.12,227.567c5.301-1.332,10.861-1.834,16.27-2.128
	c9.256-0.503,18.512,0.452,27.637,1.969c7.765,1.291,15.381,3.235,22.877,5.592c0.097-1.089,0.193-2.141,0.286-3.115
	c0.005,0,0.018-0.001,0.018-0.001l0.017-0.354c0.446-4.695,0.809-7.992,0.94-9.519c-0.164-0.01-0.338-0.016-0.505-0.023
	l0.505-11.051l-67.338,0.352c0,0-0.94,7.412-0.447,13.217C323.293,224.02,323.206,225.724,323.12,227.567z"/>
<path id="XMLID_439_" opacity="0.12" d="M387.541,283.357c-3.002,2.781-7.002,4.465-12.129,4.313
	c-4.574-0.137-8.722-1.957-12.082-4.78c0.883,19.506,2.802,41.735,6.608,64.076l22.303-1.062
	C388.652,324.839,387.523,302.931,387.541,283.357z"/>
<path id="XMLID_438_" opacity="0.12" d="M346.804,282.663c-4.687,3.874-11.023,5.691-17.422,4.006
	c-2.413-0.635-4.667-1.687-6.765-3.018c0.483,18.626,1.67,39.833,4.091,62.253h23.121
	C347.34,323.098,346.64,301.428,346.804,282.663z"/>
<path id="XMLID_437_" fill="#F79178" d="M373.004,101.907c-2.188,4.957-6.275,7.204-11.352,8.288
	c-1.622,0.347-3.438,0.601-5.329,0.714c-8.888-2.222-13.623-9.007-16.019-17.272c8.737-2.899,20.241-3.211,34.768,0.157
	c0.235,0.055,0.457,0.117,0.688,0.174C374.905,96.629,374.147,99.321,373.004,101.907z"/>
<path id="XMLID_436_" fill="#535585" d="M324.352,113.906c3.116-9.961,6.525-18,18.714-21.086
	c1.09,9.34,13.701,17.495,13.701,17.495s14.305-8.243,16.409-16.928c0.631,0.134,1.253,0.257,1.896,0.406
	c20.191,4.682,18.246,17.542,19.258,35.323c2.181,38.338,2.879,89.496,2.879,89.496s-11.045,5.518-43.442,4.877
	c-20.081-0.396-33.669-4.039-33.669-4.039S316.623,138.62,324.352,113.906z"/>
<path id="XMLID_435_" fill="#535585" d="M385,140.574c1.859-14.55-3.056-31.093-1.029-45.075c1.734,0.622,7.676,2.097,9.262,3.019
	c12.059,7.014,14.818,24.561,16.19,42.125c-0.755,0.127-20.793,4.647-24.11,5.292c0.01-0.29-0.206-1.861-0.521-4.094
	C384.876,141.42,384.946,140.997,385,140.574z"/>
<path id="XMLID_434_" fill="#474141" d="M375.121,93.1c2.531,0.208,7.33,0.828,12.144,2.4c-2.34,12.694-8.488,55.878,9.105,87.399
	c2.146,8.514,2.282,14.207,0.49,21.611C363.556,168.665,372.008,109.385,375.121,93.1z"/>
<path id="XMLID_433_" fill="#474141" d="M327.782,95.225c4.645-1.689,9.076-2.396,12.007-2.744c1.609,13.486,7,74.302-20.33,108.024
	c-1.898-10.466-2.104-15.886-0.119-23.854C331.846,147.316,329.054,107.272,327.782,95.225z"/>
<path id="XMLID_431_" fill="#F79178" d="M358.164,74.417l-1.666,0.031c-3.596,0.067-6.477,2.737-6.401,5.933l-0.845,16.776
	c0.012,0.483,0.128,0.947,0.312,1.391c3.331,0.432,6.843,0.593,9.922,1.105c1.494,0.249,2.985,0.506,4.476,0.768
	c1.46-1.352,2.461-3.1,2.423-4.707l-1.545-15.607C364.765,76.91,361.76,74.35,358.164,74.417z"/>
<ellipse id="XMLID_430_" transform="matrix(-0.0865 -0.9963 0.9963 -0.0865 301.7188 393.0125)" fill="#F79178" cx="331.043" cy="58.177" rx="6.593" ry="4.901"/>
<path id="XMLID_429_" fill="#F9A184" d="M363.493,24.021l-9.008-0.65c-11.862-0.856-22.46,11.598-23.315,23.461l-1.174,16.268
	c-0.855,11.863,8.149,22.269,20.013,23.125l9.007,0.65c11.862,0.855,22.269-8.15,23.125-20.013l1.174-16.268
	C384.169,38.731,375.355,24.876,363.493,24.021z"/>
<ellipse id="XMLID_428_" transform="matrix(0.3481 -0.9375 0.9375 0.3481 193.2919 399.4966)" fill="#F9A184" cx="383.884" cy="60.771" rx="6.565" ry="4.88"/>
<path id="XMLID_427_" fill="#F79178" d="M382.55,62.634c-0.746,0.029-1.462-0.042-2.163-0.156
	c-2.887,13.224-11.968,22.1-26.565,21.439c-16.491-0.746-20.301-9.121-23.778-17.433c0.891,10.393,9.249,18.966,19.965,19.739
	l9.007,0.65c11.802,0.851,22.153-8.06,23.103-19.832c2.416,0.515,5.164-1.401,6.342-4.572c0.482-1.3,0.626-2.613,0.483-3.796
	C387.737,60.903,384.969,62.543,382.55,62.634z"/>
<path id="XMLID_425_" fill="#FFFFFF" d="M362.59,68.591l-17.852-1.255c-1.054-0.074-1.836,1.098-1.476,2.222
	c1.669,5.22,5.376,8.987,9.834,9.301c4.46,0.313,8.53-2.907,10.729-7.854C364.299,69.938,363.645,68.665,362.59,68.591z"/>
<path id="XMLID_424_" fill="#35221A" d="M344.398,49.962c-1.54-0.781-3.674,0.679-4.768,3.26c-1.094,2.582-0.733,5.308,0.807,6.088
	c1.539,0.782,3.673-0.678,4.768-3.26C346.298,53.469,345.937,50.743,344.398,49.962z"/>
<path id="XMLID_423_" opacity="0.08" fill="#FFFFFF" d="M339.63,53.223c-1.094,2.582-0.733,5.308,0.807,6.088
	c1.352,0.686,3.161-0.357,4.323-2.37c-0.561-0.811-3.007-4.806-3.594-6.038C340.57,51.492,340.03,52.28,339.63,53.223z"/>
<path id="XMLID_422_" opacity="0.17" d="M396.527,185.889c-0.318-12.153-0.763-26.332-1.365-40.074l-0.672-4.655l-74.291,3.275
	c-1.917,32.751-0.101,75.016-0.101,75.016s3.247,0.868,8.9,1.804c7.366-3.081,15.43-8.079,15.43-15.006c0-12.065,0-12.368,0-12.372
	c0,0,7.086-2.4,8.115-4.571h38.518L396.527,185.889z"/>
<path id="XMLID_421_" fill="#35221A" d="M369.882,52.391c-1.54-0.781-3.674,0.679-4.768,3.261s-0.733,5.307,0.807,6.088
	c1.539,0.781,3.673-0.679,4.767-3.261C371.783,55.897,371.421,53.171,369.882,52.391z"/>
<path id="XMLID_419_" opacity="0.08" fill="#FFFFFF" d="M365.115,55.651c-1.094,2.582-0.733,5.307,0.807,6.088
	c1.351,0.686,3.16-0.358,4.322-2.37c-0.56-0.811-3.006-4.806-3.593-6.038C366.053,53.92,365.514,54.708,365.115,55.651z"/>
<path id="XMLID_418_" fill="#563428" d="M360.1,18.016c-31.308-0.343-29.274,33.579-29.274,33.579
	c2.597-9.846,9.936-21.746,14.859-21.621c0,0,4.01,3.711,10.381,4.318c5.698,0.543,13.912-2.899,13.912-2.899
	c5.704,0.301,9.42,13.847,10.77,20.979c0.59,3.125,2.263,2.438,2.263,2.438S390.78,18.352,360.1,18.016z"/>
<path id="XMLID_417_" fill="#F79178" d="M321.294,144.776c0,0,18.557-17.805,19.873-9.379c1.315,8.425,0.101,21.002-4.229,22.12
	c-4.329,1.116-13.628-2.847-13.628-2.847L321.294,144.776z"/>
<path id="XMLID_416_" fill="#563428" d="M376.193,21.86c-8.198-14.366-38.516-12.663-38.516-12.663
	c-4.065,15.292,6.829,19.631,6.829,19.631s26.327-2.542,30.06,0.454c3.733,2.996,8.646,22.521,8.646,22.521
	s9.483-19.393,5.202-28.09C385.273,17.33,376.193,21.86,376.193,21.86z"/>
<path id="XMLID_415_" fill="#563428" d="M339.574,21.012c-11.626-1.682-8.748,30.583-8.748,30.583l4.51-17.819
	C335.335,33.776,351.201,22.693,339.574,21.012z"/>
<path id="XMLID_412_" fill="#472A21" d="M337.642,21.067c-9.357,2.017-6.816,30.528-6.816,30.528
	c2.597-9.846,9.936-21.746,14.859-21.621C345.685,29.975,341.338,26.997,337.642,21.067z"/>
<path id="XMLID_407_" opacity="0.12" fill="#FF9300" d="M388.414,23.713c-0.465-0.945-1.062-1.646-1.739-2.164
	c-0.976,0.101-1.98,0.235-3.021,0.38c-1.481,0.211-3.016,0.417-4.576,0.468c-3.228,0.104-6.425-0.634-9.341-2
	c-1.632-0.763-3.31-1.678-5.037-2.606c-1.716-0.956-3.521-1.908-5.346-2.837c-2.679-1.365-5.442-2.665-8.4-3.292
	c-3.081-0.654-6.204-0.373-9.207,0.527c-1.744,0.523-3.21,1.394-4.314,2.298c-0.232,0.189-0.446,0.381-0.646,0.573
	c-0.037,1.344,0.054,2.575,0.252,3.689c0.663-0.38,1.469-0.747,2.379-1.042c1.002-0.301,2.11-0.548,3.35-0.547
	c4.76,0.006,9.094,2.142,13.29,4.15c1.714,0.82,3.448,1.756,5.292,2.642c1.836,0.903,3.756,1.774,5.778,2.523
	c4.071,1.508,8.443,1.902,12.684,0.955c1.872-0.418,3.519-1.01,4.951-1.572c1.433-0.571,2.661-1.098,3.739-1.483
	c0.061-0.022,0.113-0.037,0.173-0.058C388.59,24.113,388.509,23.907,388.414,23.713z M375.027,22.442
	c0.016,0,0.017-0.004,0.028-0.006l-0.007,0.006H375.027z"/>
<path id="XMLID_404_" fill="#AFAFAF" d="M388.786,121.744l-8.437-4.109c0,0-24.948,1.758-44.15,1.339v60.188l2.291,4.19
	L388.786,121.744z"/>
<polygon id="XMLID_403_" fill="#F9F0E4" points="385.258,123.303 378.904,119.114 337.567,120.717 336.869,178.604 339.522,181.955 
	"/>
<path id="XMLID_401_" fill="#D1CECD" d="M338.265,183.353l1.4-60.264c0,0,27.926,1.471,49.33-1.181l1.22,59.908
	C390.215,181.816,374.295,186.006,338.265,183.353z"/>
<path id="XMLID_398_" fill="#F9A184" d="M351.704,156.642c-3.104-2.689-5.04-6.233-5.716-10.342
	c-0.222-1.355-0.361-2.802-0.974-3.292c-1.243-0.993-3.188,1.068-3.449,3.485c-0.366,3.382,0.91,4.216,0.896,6.423
	c-0.014,2.206-0.371,3.748-2.666,4.083c-2.296,0.335-3.521-0.301-3.834-1.402l-0.21-7.96c0,0-3.806,2.2-4.697,3.167
	c-0.893,0.966-1.215,1.71-0.892,2.968c0.323,1.259,0.662,1.189,0.245,1.764s-0.938,1.822-0.394,3.649
	c0.546,1.828,1.031,2.594,0.943,2.942c-0.09,0.349-0.44,2.502,0.055,3.545c0.084,0.181,0.22,0.445,0.396,0.771
	c0.049,0.093,0.106,0.198,0.162,0.3c0.045,0.738,0.327,4.149,1.772,5.035c1.623,0.996,3.526,1.611,3.526,1.611l-0.001-0.001
	c2.778,1.05,8.373,1.675,10.879,1.685c3.188,0.014,6.604-0.934,6.604-0.934l0.658-10.396
	C355.009,163.744,354.807,159.331,351.704,156.642z"/>
<path id="XMLID_397_" fill="#F9A184" d="M410.086,135.516c-1.577-0.042-3.155-0.075-4.733-0.096
	c-4.137-0.052-8.272-0.016-12.406,0.109c0.553,15.121,1.161,18.04,1.954,23.384c-8.064-1.257-34.239,3.358-42.45,2.192l-1.77,12.444
	c2.074,0.294,14.04,1.915,26.731,1.915c8.348,0,17.011-0.702,23.374-2.943c7.534-2.654,12.752-12.393,9.643-34.625
	C410.32,137.111,410.201,136.311,410.086,135.516z"/>
<path id="XMLID_396_" fill="#535585" d="M392.241,144.443c7.045-1.553,20.812-4.155,21.331-4.243
	c-1.373-17.562-5.327-30.529-16.362-39.063c-4.608-3.565-9.602-4.548-9.602-4.548c-0.158,1.856,3.638,7.045,2.854,8.85
	c0.854-1.967-0.358,2.692-0.446,3.202c-0.307,1.76-0.551,3.526-0.883,5.282c-0.183,0.97-0.376,1.938-0.58,2.905
	C391.419,125.633,392.044,135.065,392.241,144.443z"/>
<path id="XMLID_395_" fill="#535585" d="M306.13,117.604c-2.387,3.495-4.718,7.207-7.037,10.971l21.251,14.178
	c0,0,1.999-6.23,4.134-11.273C318.498,126.644,312.534,122.146,306.13,117.604z"/>
<path id="XMLID_392_" fill="#F79178" d="M309.771,153.29l6.019-9.748c-0.42,0.067-0.842,0.117-1.265,0.15
	c-5.71,0.438-11.706,1.472-17.858,2.306c-5.161,15.15-9.136,33.352,2.427,31.491c15.013-2.416,25.385-23.604,25.385-23.604
	l-3.184-9.109C321.294,144.776,312.983,149.1,309.771,153.29z"/>
<path id="XMLID_391_" fill="#E4EFEF" d="M222.711,127.653c-4.303,1.256-8.619,2.465-12.941,3.652l2.365,6.844l18.522-4.832
	c0,0-0.048-3.11-0.55-7.853C227.649,126.219,225.177,126.934,222.711,127.653z"/>
<polygon id="XMLID_390_" fill="#4C3232" points="143.666,200.276 144.499,224.378 210.456,222.822 210.9,200.276 "/>
<path id="XMLID_389_" fill="#686868" d="M177.485,354.589c0.921-2.646,2.264-5.198,3.25-7.848c0.501-1.346-0.22-12.33,0.115-12.362
	c0.001-0.001,14.654-17.747,14.654-17.747s-3.992,31.783,0.14,34.763c4.297,3.098,10.67,8.182,15.674,10.273
	c-3.125,4.059-6.212,8.146-9.282,12.247c-10.188-2.849-10.192-2.85-10.192-2.85l-0.011,1.146c-0.007,0.776-0.643,1.399-1.419,1.392
	l-10.709-0.104c-0.995-0.009-1.83-0.744-1.961-1.73c-0.146-1.098-0.292-2.193-0.417-3.293c-0.364-3.201-0.599-6.439-0.421-9.661
	C176.986,357.369,177.006,355.965,177.485,354.589z"/>
<path id="XMLID_387_" fill="#3F2A2A" d="M177.644,353.605c2.533,2.506,12.146,10.453,19.589-0.753
	c0.399-0.601,1.212-0.748,1.771-0.292c5.857,4.768,13.549,11.354,17.588,9.812c5.976-2.281,9.142,0.514,9.312,4.768
	s0.169,4.254,0.169,4.254s-12.175,5.836-23.203,2.754c-11.027-3.083-11.027-3.083-11.027-3.083l-0.011,1.146
	c-0.007,0.776-0.642,1.399-1.418,1.392l-10.709-0.104c-0.995-0.009-1.83-0.744-1.961-1.73c-0.442-3.329-1.998-12.148-0.721-17.84
	C177.084,353.654,177.443,353.407,177.644,353.605z"/>
<path id="XMLID_386_" fill="#4F3E3E" d="M177.264,368.943c14.847-0.886,23.511,4.911,33.298,4.384
	c6.445-0.348,12.879-2.505,15.579-3.513c0.68-0.254,1.415,0.192,1.507,0.912l0.058,0.447c0.051,0.397-0.167,0.787-0.536,0.945
	c-13.019,5.595-26.272,2.794-29.807,1.976c-2.904-0.671-14.931,0.367-19.424,0.789c-0.942,0.088-1.771-0.607-1.854-1.551
	l-0.242-2.763C175.769,369.724,176.415,368.994,177.264,368.943z"/>
<path id="XMLID_385_" fill="#4C3232" d="M197.762,343.832h-20.916c9.404-59.434,9.287-129.032,9.287-129.856l26.139-1.604
	C212.272,214.842,207.474,283.483,197.762,343.832z"/>
<path id="XMLID_384_" fill="#686868" d="M140.805,353.552c1.032-2.605,2.482-5.098,3.58-7.703
	c0.558-1.323,0.304-12.328,0.639-12.347c0.002,0,15.394-17.109,15.394-17.109s-5.336,31.585-1.334,34.737
	c2.828,2.228,6.573,5.402,10.225,7.934c-3.876,4.224-7.804,8.398-11.729,12.578c-3.12-1.018-3.127-1.021-3.127-1.021l-0.06,1.146
	c-0.041,0.774-0.702,1.37-1.477,1.33l-10.696-0.558c-0.994-0.052-1.796-0.822-1.886-1.812c-0.099-1.103-0.198-2.204-0.277-3.308
	c-0.227-3.214-0.324-6.46-0.01-9.67C140.188,356.309,140.269,354.905,140.805,353.552z"/>
<path id="XMLID_382_" fill="#4C3232" d="M141.005,352.575c2.425,2.611,11.692,10.959,19.604,0.079
	c0.424-0.584,1.243-0.696,1.783-0.218c5.649,5.013,13.055,11.92,17.156,10.551c6.067-2.025,9.112,0.9,9.101,5.158
	c-0.011,4.258-0.011,4.258-0.011,4.258s-12.412,5.314-23.298,1.767c-10.887-3.549-10.887-3.549-10.887-3.549l-0.059,1.146
	c-0.041,0.774-0.702,1.37-1.477,1.33l-10.696-0.558c-0.994-0.052-1.796-0.822-1.886-1.812c-0.3-3.345-1.48-12.224,0.036-17.854
	C140.444,352.6,140.813,352.368,141.005,352.575z"/>
<path id="XMLID_381_" fill="#594545" d="M139.975,367.884c14.872-0.256,23.282,5.904,33.083,5.791
	c6.455-0.073,12.973-1.956,15.714-2.848c0.69-0.226,1.405,0.252,1.467,0.975l0.039,0.45c0.034,0.399-0.201,0.778-0.576,0.921
	c-13.245,5.037-26.367,1.677-29.864,0.711c-2.873-0.795-14.934-0.269-19.441-0.037c-0.945,0.048-1.744-0.683-1.786-1.627
	l-0.125-2.771C138.448,368.6,139.125,367.897,139.975,367.884z"/>
<path id="XMLID_380_" fill="#4C3232" d="M162.174,343.823l-21.985,0.084c5.661-64.445,3.879-130.829,3.893-131.744h29.085
	C173.152,213.078,167.905,278.573,162.174,343.823z"/>
<path id="XMLID_379_" opacity="0.12" d="M160.285,275.476c-5.951,1.389-12.06-0.64-16.31-4.684
	c-0.486,21.867-1.561,47.531-3.787,72.874l21.985-0.005c2.219-25.256,4.363-50.572,6.161-72.182
	C165.978,273.397,163.186,274.799,160.285,275.476z"/>
<path id="XMLID_375_" opacity="0.17" d="M144.082,212.244c-0.004,0.221,0.123,5.204,0.198,13.615
	c3.726-0.902,7.529-1.534,11.11-2.267c9.166-1.872,18.468-3.273,27.791-4.07c9.405-0.804,19.102-0.875,28.626,0.213
	c0.31-4.251,0.465-6.818,0.465-7.261l-1.621,0.097l0.249-12.677h-67.234l0.423,12.35H144.082z"/>
<path id="XMLID_372_" opacity="0.12" d="M205.575,272.126c-3.019,1.966-6.668,2.941-10.258,3c-3.944,0.065-7.965-1.25-11.051-3.726
	c-1.321,22.327-3.574,48.328-7.419,72.567h20.916c3.949-24.776,7.087-50.739,9.418-72.993
	C206.67,271.378,206.136,271.762,205.575,272.126z"/>
<path id="XMLID_371_" fill="#F79178" d="M186.417,70.733c0.106-3.173-2.943-5.99-6.776-6.261l-1.775-0.125
	c-3.833-0.271-7.055,2.104-7.162,5.276l-1.77,15.429c-0.106,3.173,4.158,7.141,7.991,7.412l1.774,0.125
	c3.833,0.271,8.431-4.419,8.538-7.592L186.417,70.733z"/>
<ellipse id="XMLID_370_" transform="matrix(0.1161 -0.9932 0.9932 0.1161 133.356 248.0378)" fill="#F79178" cx="206.032" cy="49.096" rx="6.534" ry="4.857"/>
<path id="XMLID_369_" fill="#F9A184" d="M183.837,13.926l-8.941,0.377c-11.776,0.499-20.917,13.962-20.418,25.738l0.683,16.149
	c0.498,11.776,10.541,21.004,22.317,20.506l8.941-0.378c11.776-0.498,21.004-10.541,20.506-22.317l-0.684-16.149
	C205.744,26.077,195.614,13.428,183.837,13.926z"/>
<ellipse id="XMLID_368_" transform="matrix(-0.32 -0.9474 0.9474 -0.32 155.3013 211.6767)" fill="#F9A184" cx="153.613" cy="50.107" rx="6.507" ry="4.837"/>
<path id="XMLID_367_" fill="#F79178" d="M182.709,73.922c-14.479,0.224-23.214-8.836-25.683-22.021
	c-0.698,0.093-1.41,0.141-2.147,0.091c-2.394-0.163-5.088-1.868-6.216-4.112c-0.176,1.167-0.073,2.473,0.366,3.774
	c1.073,3.176,3.739,5.155,6.147,4.716c0.593,11.689,10.584,20.822,22.3,20.327l8.942-0.378c10.637-0.45,19.169-8.696,20.358-18.965
	C203.088,65.487,199.068,73.669,182.709,73.922z"/>
<path id="XMLID_365_" fill="#FFFFFF" d="M192.195,57.764l-17.72,0.717c-1.046,0.042-1.732,1.284-1.295,2.354
	c2.031,4.966,5.969,8.276,10.396,8.097c4.426-0.179,8.209-3.802,10.017-8.923C193.981,58.906,193.242,57.722,192.195,57.764z"/>
<path id="XMLID_364_" fill="#35221A" d="M169.7,42.883c-1.704-0.144-3.43,1.965-3.854,4.711s0.614,5.09,2.319,5.233
	c1.704,0.144,3.429-1.965,3.853-4.711C172.442,45.371,171.404,43.028,169.7,42.883z"/>
<path id="XMLID_361_" opacity="0.08" fill="#FFFFFF" d="M165.757,48.577c-0.07,2.302,0.911,4.125,2.408,4.251
	c1.704,0.144,3.429-1.965,3.853-4.711c0.155-1.003,0.111-1.948-0.086-2.756C170.795,46.094,166.651,48.186,165.757,48.577z"/>
<path id="XMLID_360_" fill="#35221A" d="M196.601,41.126c-1.704-0.144-3.43,1.965-3.854,4.711s0.614,5.089,2.318,5.233
	c1.705,0.144,3.43-1.965,3.854-4.711C199.343,43.613,198.305,41.27,196.601,41.126z"/>
<path id="XMLID_359_" opacity="0.08" fill="#FFFFFF" d="M192.657,46.819c-0.069,2.302,0.912,4.125,2.408,4.251
	c1.705,0.144,3.43-1.965,3.854-4.711c0.155-1.003,0.111-1.949-0.085-2.756C197.696,44.336,193.552,46.429,192.657,46.819z"/>
<path id="XMLID_354_" fill="#F79178" d="M204.872,31.345c0.028-0.27-6.943-14.502-6.943-14.502l-33.521,1.011
	c0,0-10.243,18.305-10.232,18.465c0.011,0.16,1.437,9.678,1.437,9.678c0.771-19.384,10.319-22.56,10.319-22.56
	c21.983,11.589,28.498-1.111,28.498-1.111c9.359,3.784,12.077,21.76,12.077,21.76S204.844,31.614,204.872,31.345z"/>
<path id="XMLID_338_" fill="#35221A" d="M189.444,0.931c-5.489-2.451-18.386,0.033-26.442,6.348
	c-2.783,2.181-4.611,4.645-5.787,6.938c-0.911-1.019-2.186-1.626-3.802-1.379c-6.157,0.938-2.94,25.043-1.366,29.452v-0.003
	c0.061,0.937,0.491,1.458,0.491,1.458c1.955,0.393,2.189,2.185,2.189,2.185l0.886,0.068c0,0-0.002-0.037,0.658-9.621
	c0.66-9.584,9.735-15.075,9.735-15.075s14.827,7.058,28.604-1.325c10.943,6.259,11.896,24.109,11.896,24.109
	s0.431-4.439,0.546-5.922c0.927-11.979-1.237-22.21-3.346-24.644c-0.226-0.26-0.509-0.419-0.813-0.531
	c3.443-5.355,3.345-10.786,3.345-10.786S197.635,4.587,189.444,0.931z"/>
<path id="XMLID_337_" opacity="0.11" fill="#FFFFFF" d="M194.393,2.463c-5.879,5.697-12.668,8.399-21.3,9.235
	c-4.723,0.458-9.398,0.413-13.419-1.175c-0.4,0.484-0.778,0.97-1.113,1.456c6.033,2.698,12.768,3.428,19.527,3.729
	c10.135,0.452,20.464-3.229,24.687-12.913C200.605,3.026,197.613,3.089,194.393,2.463z"/>
<path id="XMLID_336_" d="M202.892,12.988c-1.468,1.764-6.707,5.885-8.283,6.987c10.943,6.258,11.896,24.109,11.896,24.109
	s0.431-4.439,0.546-5.922c0.927-11.979-1.237-22.21-3.346-24.644C203.479,13.259,203.197,13.1,202.892,12.988z"/>
<path id="XMLID_335_" fill="#F79178" d="M163.345,92.69c2.188,4.956,6.276,7.203,11.353,8.289c1.622,0.347,3.437,0.601,5.329,0.714
	c8.887-2.222,13.624-9.007,16.018-17.272c-8.738-2.899-20.241-3.211-34.767,0.157c-0.236,0.055-0.458,0.117-0.689,0.174
	C161.445,87.412,162.204,90.104,163.345,92.69z"/>
<path id="XMLID_334_" fill="#CAD7D8" d="M211.998,104.689c-3.115-9.961-6.525-18-18.714-21.086
	c-2.073,17.772-25.673,18.87-30.109,0.567c-0.631,0.134-1.252,0.257-1.896,0.406c-20.192,4.682-18.247,17.542-19.258,35.323
	c-2.181,38.337-2.879,94.523-2.879,94.523s16.317,1.35,43.442,1.525c20.084,0.131,33.668-1.525,33.668-1.525
	S219.728,129.403,211.998,104.689z"/>
<path id="XMLID_333_" fill="#CAD7D8" d="M151.35,131.357c-1.859-14.55,3.055-31.093,1.029-45.075
	c-1.734,0.622-7.676,2.097-9.262,3.019c-12.059,7.014-14.819,24.561-16.191,42.125c0.756,0.127,20.794,4.647,24.111,5.292
	c-0.01-0.29,0.207-1.861,0.521-4.094C151.474,132.203,151.404,131.78,151.35,131.357z"/>
<path id="XMLID_332_" fill="#474141" d="M161.229,83.883c-2.531,0.208-7.33,0.828-12.143,2.4
	c2.339,12.694,8.489,55.878-9.106,87.399c-2.146,8.513-2.283,14.206-0.49,21.611C172.794,159.448,164.341,100.168,161.229,83.883z"
	/>
<path id="XMLID_331_" fill="#474141" d="M208.567,86.008c-4.644-1.689-9.076-2.396-12.006-2.744
	c-1.608,13.486-6.999,74.302,20.331,108.024c1.898-10.466,2.104-15.886,0.119-23.854C204.504,138.1,207.295,98.055,208.567,86.008z"
	/>
<path id="XMLID_330_" fill="#626A6D" d="M213.301,116.435l-4.377-4.209c0,0-36.888,1.529-48.446,0.554l-8.305,59.432l2.366,3.808
	L213.301,116.435z"/>
<path id="XMLID_328_" opacity="0.08" d="M164.492,127.755l-1.083,6.994c-2.117-2.656-0.911-19.235-2.931-21.969
	c0,0-3.365,10.309-9.399,15.765c-3.182-1.179-6.864,16.068-10.157,14.898c-0.396,10.249-0.714,20.709-0.966,30.34
	c-0.276,1.102-0.517,2.152-0.726,3.17c2.576,0.987,5.837,1.676,9.95,2.135l-0.711,4.65c0,0,27.031,5.317,54.447,0.927l1.517-7.783
	c1.745-0.45,3.164-0.978,3.672-1.53c1.75-1.904,3.428-5.475,3.922-6.518s0.143-3.197,0.054-3.546
	c-0.088-0.349,0.397-1.114,0.943-2.941c0.545-1.828,0.024-3.075-0.393-3.65c-0.417-0.573-0.079-0.505,0.244-1.763
	c0.323-1.259,0.001-2.002-0.891-2.968c-0.892-0.967-2.599-2.511-2.599-2.511l3.915-35.02
	C213.301,116.435,187.985,129.402,164.492,127.755z"/>
<path id="XMLID_327_" fill="#EFE8D8" d="M155.364,174.99c-0.607-0.37-1.956-3.602-1.956-3.602l8.748-57.217
	c0,0,32.519,0.412,45.486-0.515l4.116,3.706L155.364,174.99z"/>
<path id="XMLID_326_" opacity="0.05" d="M156.37,115.97l-8.725,57.065c0,0,1.348,3.23,1.956,3.603l30.758-31.433
	C172.141,135.636,163.868,126.119,156.37,115.97z"/>
<path id="XMLID_325_" fill="#80898E" d="M202.092,173.962l11.209-57.527c0,0-26.139,2.264-49.633,0.618l-9.129,58.967
	C154.54,176.02,190.883,177.255,202.092,173.962z"/>
<path id="XMLID_324_" fill="#F9A184" d="M188.116,154.58c-11.901,2.607-34.887-1.793-41.31-3.376
	c1.051-3.83,1.932-8.041,3.062-14.987c-6.575-2.436-13.627-4.645-20.158-7.492c-1.291,11.417-1.378,24.921,1.566,31.377
	c3.197,7.012,12.515,8.915,34.275,9.075c0.65,0.005,1.208,0,1.853,0c11.624,0,18.942-2.018,21.343-2.36L188.116,154.58z"/>
<path id="XMLID_320_" fill="#F79178" d="M134.072,142.12c4.856-2.383,9.908-2.953,14.849-0.407c0.301-1.635,0.613-3.444,0.947-5.496
	c-6.575-2.436-13.627-4.645-20.158-7.492c-0.616,5.452-0.953,11.374-0.821,16.782C130.464,144.215,132.164,143.057,134.072,142.12z"
	/>
<path id="XMLID_319_" fill="#F9A184" d="M187.206,156.203c0,0,0.202-4.413,3.306-7.103c3.104-2.689,5.04-6.233,5.715-10.342
	c0.223-1.356,0.362-2.803,0.975-3.292c1.243-0.993,3.303,0.259,4.035,2.325c1.135,3.206-1.496,5.375-1.482,7.582
	s1.071,3.907,3.366,4.242c2.295,0.334,3.437-1.21,3.75-2.311l1.693-6.553c0,0,1.707,1.543,2.599,2.51
	c0.892,0.967,1.214,1.71,0.891,2.968c-0.323,1.259-0.662,1.19-0.245,1.764c0.417,0.574,0.938,1.822,0.393,3.649
	c-0.545,1.827-1.031,2.594-0.942,2.941c0.088,0.349,0.439,2.504-0.055,3.547s-2.173,4.613-3.922,6.517
	c-1.404,1.528-9.721,2.871-12.812,2.884c-3.189,0.013-6.605-0.934-6.605-0.934L187.206,156.203z"/>
<path id="XMLID_318_" fill="#CAD7D8" d="M151.091,128.766c-0.2-2.677-0.203-5.412-0.092-8.175c-0.422-1.535-0.841-3.07-1.235-4.612
	c-0.955-3.731-1.833-7.486-2.547-11.272c-0.331-1.756-0.575-3.522-0.882-5.282c-0.088-0.509-1.301-5.169-0.446-3.202
	c-0.784-1.805-1.268-3.686-1.426-5.542c-0.115-0.637-0.168-1.274-0.159-1.905c-0.496,0.187-0.91,0.365-1.187,0.525
	c-12.059,7.014-14.819,24.561-16.191,42.125c0.722,0.121,19.042,4.252,23.563,5.182
	C150.635,133.987,150.831,131.371,151.091,128.766z"/>
<path id="XMLID_317_" fill="#E4EFEF" d="M127.476,125.312c-0.21,2.027-0.39,4.069-0.55,6.113c0.722,0.121,19.042,4.252,23.563,5.182
	c0.146-2.62,0.342-5.236,0.603-7.842c-0.006-0.073-0.008-0.147-0.013-0.221C143.304,127.436,135.562,126.459,127.476,125.312z"/>
<path id="XMLID_316_" fill="#E4EFEF" d="M165.62,83.604c0,0,2.829,11.804,13.257,11.529c10.428-0.274,12.911-11.869,12.911-11.869
	s2.643-1.232,4.257,0.619c0,0-0.755,15.84-17.168,15.847c-16.687,0.006-17.167-15.3-17.167-15.3S163.562,82.914,165.62,83.604z"/>
<path id="XMLID_315_" fill="#653633" d="M303.967,159.343c-0.175-0.2-26.658,3.984-26.107,9.954
	c0.551,5.969,15.776,36.951,15.776,36.951l10.936-11.842L303.967,159.343z"/>
<path id="XMLID_314_" fill="#653633" d="M325.581,214.994c0,0-27.335,7.709-38.119,4.357c-10.783-3.351,24.28-36.655,24.28-36.655
	L325.581,214.994z"/>
<path id="XMLID_313_" fill="#ED8C73" d="M263.284,326.06c-4.833-0.006-9.665-0.03-14.496-0.076
	c-0.26,11.638-0.418,22.389-0.312,28.535c0.036,2.046,6.186,0.086,6.186,0.086s4.206-11.113,8.551-27.128
	C263.049,327.261,263.447,326.274,263.284,326.06z"/>
<path id="XMLID_312_" fill="#ED8C73" d="M259.472,338.24l-10.268,6.312l-12.007,25.308l-1.352,0.074
	c-0.502,1.197-5.017,2.347-5.601,3.499c-0.046,0.091-0.101,0.174-0.152,0.26h19.355l7.924-13.261l-4.043,13.261h3.881l8.234-21.039
	L259.472,338.24z"/>
<path id="XMLID_311_" fill="#ED8C73" d="M266.319,327.083c2.317,9.76,4.096,20.037,6.526,30.196l7.034-6.654
	c0,0,0.967-10.685,0.948-25.22C275.791,326.212,271.39,326.712,266.319,327.083z"/>
<path id="XMLID_310_" fill="#672F30" d="M247.011,340.021c4.078,1.425,10.958,0.144,13.905-0.609
	c4.929-16.395,4.389-42.629,2.131-60.084c-1.35-10.437-5.455-15.68-4.021-26.105l4.329-51.287l-30.564-9.705
	c0,0-4.448,48.645,2.83,83.024C235.619,275.255,247.494,315.384,247.011,340.021z"/>
<path id="XMLID_309_" fill="#672F30" d="M268.384,340.664c6.463,0.805,10.419-0.185,12.508-1.115
	c0.498-15.818,5.922-36.45,6.199-57.756c0.112-8.736,1.224-17.431,3.08-25.968c4.397-20.223,13.666-45.822,7.429-67.088
	c-4.877-16.629-35.484,6.891-35.484,6.891s-1.402,42.921,1.238,66.293c0.819,7.258,0.49,16.647-0.272,23.911
	C261.827,297.803,262.917,317.699,268.384,340.664z"/>
<path id="XMLID_308_" fill="#602C2F" d="M271.105,215.461c9.157,1.309,18.133,3.492,26.931,6.271
	c1.959-11.279,2.599-22.649-0.436-32.994c-4.877-16.629-35.484,6.891-35.484,6.891s-0.072,2.199-0.152,5.866l-29.174-9.264
	c0,0-0.888,9.725-1.221,23.549C244.374,212.867,258.507,213.661,271.105,215.461z"/>
<path id="XMLID_307_" fill="#5B2C2E" d="M261.844,342.042c-0.094-0.276-0.48-0.28-0.587-0.008
	c-10.79,27.604-24.061,27.827-24.061,27.827l-6.458,0.141c-1.847,0.1-2.812,2.24-1.666,3.691l0,0h20.373l7.924-13.261l-4.043,13.261
	h3.881l8.234-21.039L261.844,342.042z"/>
<polygon id="XMLID_305_" fill="#ED8C73" points="269.987,342.687 263.047,374.92 283.195,374.92 280.087,342.07 "/>
<polygon id="XMLID_304_" fill="#5B2C2E" points="269.671,344.229 263.047,374.92 283.195,374.92 280.332,344.145 279.395,368.1 
	269.45,368.408 "/>
<path id="XMLID_302_" fill="#672F30" d="M263.047,374.92c0,0,3.808-4.261,14.151-3.978c10.342,0.284,5.997,3.978,5.997,3.978
	H263.047z"/>
<path id="XMLID_297_" fill="#462B24" d="M236.833,120.723l19.143-5.9c3.047-3.772,5.09-7.413,5.09-7.413s1.848,3.384,4.651,7.413
	h24.979c0.011-0.047,0.021-0.09,0.031-0.138c15.26-72.104-13.432-84.731-19.82-82.287c0,0-4.284-4.426-9.74-3.417
	c-11.581,2.141-43.407,12.137-28.27,78.02C233.617,110.131,235.958,118.607,236.833,120.723z"/>
<path id="XMLID_295_" opacity="0.25" d="M281.746,55.372c-0.226-0.597-0.471-1.209-0.727-1.828
	c-5.354-0.056-10.708-0.088-16.061-0.174c-7.564-0.122-15.09-0.637-22.619-1.134c-0.045,0.099-0.09,0.198-0.135,0.297
	c-0.039,0.103-0.106,0.273-0.209,0.532c-1.897,4.965-3.263,10.115-4.244,15.337c-0.956,5.089-1.198,7.587-1.564,13.519
	c-0.746,12.079,0.26,22.062,2.998,33.259c0.364,1.49,0.746,2.979,1.138,4.468l15.652-4.824c3.047-3.772,5.09-7.413,5.09-7.413
	s1.848,3.384,4.651,7.413h22.64c0.154-10.782-0.064-21.564-0.898-32.218C286.761,73.69,285.239,64.619,281.746,55.372z"/>
<path id="XMLID_293_" fill="#FD504D" d="M237.793,115.235c-2.161,4.494-3.43,8.796-3.43,8.796c3.672,2.553,8.357,3.427,11.896,6.196
	c1.412-8.528,2.085-15.32,2.102-15.908c0.081-2.66,0-10.41,0-10.41S241.827,106.849,237.793,115.235z"/>
<path id="XMLID_292_" fill="#FF5C54" d="M244.098,108.067c-2.767,5.25,5.315,5.252,2.13,9.037c-0.767,0.911,2.029,4.823,2.059,5.984
	c4.819-11.129,7.953-20.489,8.189-21.203l-1.022,0.15C250.524,102.762,246.364,103.767,244.098,108.067z"/>
<path id="XMLID_290_" fill="#ED8C73" d="M272.768,101.068c-7.011,0.086-13.453,0.158-18.931,1.225
	c-0.506,1.699-2.493,3.785-3.17,5.414c-0.563,1.354-1.087,2.72-1.588,4.094c-0.969,3.775-2.05,7.524-3.144,11.264
	c-1.118,3.823-2.573,5.105-3.724,8.918c0.381,0.284,0.623,0.43,0.623,0.43s-0.29,2.212-0.709,5.764
	c10.797,2.282,21.62,4.438,32.493,6.329c0.345-7.118,3.265-19.5,5.379-30.254c-0.183-0.299-0.367-0.597-0.549-0.898
	C277.1,109.459,274.732,105.115,272.768,101.068z"/>
<path id="XMLID_289_" fill="#FF5C54" d="M274.713,147.803c-0.847-4.118,3.668-20.114,6.216-33.07
	c-0.184-0.299-1.3-1.078-1.481-1.378c-2.348-3.895,9.716-10.357-2.311-12.275c-2.79-0.445-4.825-0.007-5.411,0.002
	c-1.246,3.992-2.541,8.35-5.73,11.217c-1.841,1.656-3.558,2.922-6.055,3.006c-7.374,0.249-5.807-9.986-5.407-13.14
	c-5.952,0.746-5.464,12.681-8.707,15.334c-8.036,6.574-7.821,12.911-6.438,16.179c2.126,5.024,2.536,6.179,2.327,8.021
	c-0.497,4.389-0.956,8.782-1.365,13.18c-0.869,9.346-11.805,42.962-11.665,44.334c1.526,14.936,77.35,13.237,72.863-4.562
	C295.133,169.189,276.048,154.291,274.713,147.803z"/>
<path id="XMLID_288_" fill="#FB4D4A" d="M282.834,161.088c0.299-0.097,0.603-0.164,0.906-0.232
	c-4.662-5.988-8.459-10.287-9.027-13.053c-0.847-4.118,3.668-20.114,6.216-33.07c-0.093-0.152-0.427-0.428-0.758-0.702
	c-2.297,4.503-5.674,8.498-9.299,11.189c-8.319,6.177-21.815,4.452-31.928,2.181c-0.576,2.565-0.198,4.755,0.445,6.277
	c2.126,5.024,2.536,6.179,2.327,8.021c-0.103,0.906-0.196,1.813-0.295,2.721c3.445-0.626,19.977,2.608,33.136,23.869
	C276.075,164.97,278.978,162.336,282.834,161.088z"/>
<path id="XMLID_287_" fill="#ED8C73" d="M262.139,84.827c-3.018,0.096-5.636,3.495-5.524,6.868l-0.289,12.995
	c3.938-0.269,7.873-0.574,11.81-0.853l-0.307-13.051C267.717,87.412,265.157,84.731,262.139,84.827z"/>
<path id="XMLID_286_" fill="#F9A184" d="M267.568,33.939c-2.779-0.398-5.62-0.367-8.394,0.158
	c-6.137,1.161-11.382,4.535-15.554,9.099c-1.194,1.307-2.265,2.723-3.215,4.217c-0.042,0.068-0.086,0.136-0.129,0.205
	c-8.248,13.205-7.668,35.145,6.503,44.261c3.294,2.119,6.724,3.264,10.138,3.604c14.276,1.421,28.286-11.219,31.053-25.464
	C290.823,55.333,284.15,36.319,267.568,33.939z"/>
<path id="XMLID_285_" opacity="0.08" d="M268.387,51.293c3.179,9.674,16.747,17.021,19.368,19.701
	c0.075-0.325,0.151-0.65,0.215-0.977c2.853-14.684-3.82-33.698-20.402-36.078c-2.779-0.398-5.62-0.367-8.394,0.158
	c-6.137,1.161-11.382,4.535-15.554,9.099c-1.194,1.307-2.265,2.723-3.215,4.217c-0.042,0.068-0.086,0.136-0.129,0.205
	c-5.268,8.433-6.926,20.425-3.752,30.368C239.648,62.319,259.268,60.556,268.387,51.293z"/>
<path id="XMLID_284_" fill="#DB8575" d="M287.97,70.017C287.853,70.622,288.127,69.418,287.97,70.017L287.97,70.017z"/>
<path id="XMLID_283_" fill="#FFFFFF" d="M266.146,79.132l-17.031-1.979c-1.006-0.117-1.817,0.875-1.534,1.882
	c1.319,4.673,4.668,8.169,8.922,8.664c4.254,0.494,8.326-2.139,10.697-6.384C267.711,80.4,267.152,79.249,266.146,79.132z"/>
<path id="XMLID_282_" fill="#3E1208" d="M247.525,62.766c-1.84-0.664-4.077,0.896-4.997,3.483c-0.919,2.587-0.172,5.223,1.668,5.886
	c1.841,0.663,4.078-0.896,4.997-3.483C250.113,66.065,249.366,63.43,247.525,62.766z"/>
<path id="XMLID_281_" opacity="0.14" fill="#FFFFFF" d="M242.529,66.25c-0.919,2.587-0.172,5.223,1.668,5.886
	c1.372,0.494,2.962-0.249,4.065-1.729c-1.586-1.984-3.18-3.963-4.782-5.934C243.096,64.983,242.767,65.58,242.529,66.25z"/>
<path id="XMLID_280_" fill="#3E1208" d="M273.832,65.426c-1.859-0.67-4.119,0.905-5.047,3.519c-0.928,2.613-0.173,5.275,1.685,5.945
	c1.859,0.67,4.118-0.905,5.047-3.518C276.444,68.758,275.689,66.097,273.832,65.426z"/>
<path id="XMLID_278_" opacity="0.14" fill="#FFFFFF" d="M268.784,68.945c-0.928,2.613-0.173,5.275,1.685,5.945
	c1.461,0.527,3.16-0.345,4.275-2.006c-1.649-1.945-3.259-3.922-4.831-5.93C269.455,67.512,269.058,68.175,268.784,68.945z"/>
<path id="XMLID_277_" fill="#592F2E" d="M298.304,160.554c0,0,14.078-7.723,26.621-1.811c14.206,6.693,28.731,25.147,22.011,30.721
	c-6.72,5.574-21.656,10.161-21.656,10.161l-20.389-35.337L298.304,160.554z"/>
<path id="XMLID_276_" fill="#814E47" d="M306.593,207.419c0,0-18.361-40.144,2.347-47.389c20.708-7.243,32.035,44.931,24.346,51.07
	C325.595,217.24,310.818,218.843,306.593,207.419z"/>
<path id="XMLID_273_" fill="#EDE2E1" d="M312.085,173.727c-3.614,0.494-6.958-2.044-7.452-5.659
	c-0.494-3.614,2.044-6.957,5.659-7.451c3.613-0.495,6.957,2.043,7.451,5.657C318.239,169.889,315.7,173.231,312.085,173.727z
	 M310.534,162.379c-2.644,0.36-4.499,2.806-4.138,5.448c0.362,2.642,2.806,4.498,5.448,4.137c2.642-0.362,4.498-2.806,4.137-5.449
	C315.62,163.874,313.175,162.018,310.534,162.379z"/>
<path id="XMLID_272_" fill="#653633" d="M303.967,189.323c0,0,5.979-6.616,25.481-8.455c0,0,10.753,25.006-4.137,29.932
	C310.422,215.725,303.967,189.323,303.967,189.323z"/>
<path id="XMLID_271_" fill="#95635A" d="M308.547,167.533c1.122-0.85,2.218-1.681,3.323-2.537c0.667-0.517,0.687-1.531,0.029-2.061
	c-3.979-3.203-8.692-6.215-12.866-8.712c-7.601-4.546-14.778-8.839-19.196-16.034c-8.205-13.364-0.791-37.384-0.726-37.603
	l-7.203-0.668c-0.311,1.02-7.568,25.817,2.429,42.101c5.335,8.689,13.588,13.625,21.568,18.398
	c3.604,2.155,7.658,4.672,10.917,7.115C307.334,167.917,308.037,167.919,308.547,167.533z"/>
<path id="XMLID_270_" fill="#95635A" d="M308.832,170.86l-0.076,4.78c0,0,2.735,1.534,7.049-0.571
	c3.322-1.622,4.11-4.827,4.11-4.827l-4.947-2.521C314.967,167.721,312.86,170.365,308.832,170.86z"/>
<path id="XMLID_268_" fill="#472626" d="M305.988,189.879c0,0,12.145-6.587,22.503-7.479
	C328.491,182.4,322.591,187.064,305.988,189.879z"/>
<path id="XMLID_267_" fill="#F9A184" d="M209.498,82.827c-0.016-0.021-0.027-0.045-0.042-0.066
	c-2.311-1.745-4.898-3.108-7.595-4.173c-0.323-0.003-0.627,0.009-0.88,0.056c-1.676,0.31-3.782,12.547-2.25,12.925
	c0.875,0.216,0.995-0.013,1.365-0.755c-0.121,0.848-0.213,1.53-0.264,1.952c-0.2,1.641,1.025,2.632,2.809,0.383l0,0
	c-0.181,0.749-0.291,1.277-0.272,1.385c0.284,1.602,2.136,0.725,2.968-0.475c0.066-0.094,0.131-0.211,0.196-0.317
	c0.001,0.004,0,0.011,0.001,0.014c0.383,0.943,1.418,0.926,3.391-0.606c1.541-1.197,3.668-5.003,4.165-5.075
	c0.004-0.001,0.175-0.212,0.385-0.48C212.074,86.079,210.735,84.506,209.498,82.827z"/>
<path id="XMLID_266_" fill="#F9A184" d="M220.959,94.255c0,0,0.781-4.422-0.403-6.943c-1.184-2.521-2.029-5.814-2.146-7.41
	c-0.118-1.595-1.61-1.389-2.536,0.052c-0.926,1.44-0.206,6.792-0.206,6.792L220.959,94.255z"/>
<path id="XMLID_265_" fill="#54352E" d="M270.931,31.42c0,0-4.307-3.447-9.763-2.438c-10.24,1.894-36.302,9.937-31.737,57.318
	c2.188-32.845,34.811-29.346,39.643-40.986c2.492,14.315,25.32,16.984,25.02,49.084C300.348,40.167,278.569,27.853,270.931,31.42z"
	/>
<path id="XMLID_264_" opacity="0.12" fill="#FFE3C2" d="M237.267,45.164c0.556,0.398,1.115,0.793,1.686,1.169
	c1.401,0.925,2.845,1.788,4.309,2.608c3.274,1.836,4.062,2.222,6.937,3.195c1.725,0.584,3.48,1.081,5.252,1.496
	c0.152,0.036,0.76,0.151,1.443,0.282c5.319-2.286,9.842-4.349,11.772-7.776c-4.002-0.488-7.995-1.533-11.997-3.276
	c-4.156-1.811-7.968-4.238-11.017-7.566c-3.19,2.25-6.32,5.277-8.998,9.354C236.935,44.884,237.139,45.055,237.267,45.164z"/>
<path id="XMLID_263_" opacity="0.12" fill="#FFE3C2" d="M291.265,48.944c-0.602-1.71-1.252-3.284-1.944-4.723
	c-6.762,1.87-13.418,2.703-20.047,1.99c0.742,3.071,2.444,5.611,4.622,8.07C279.959,53.41,285.725,51.545,291.265,48.944z"/>
<ellipse id="XMLID_262_" transform="matrix(0.442 -0.897 0.897 0.442 93.0988 299.5336)" fill="#F9A184" cx="287.297" cy="74.939" rx="6.93" ry="4.898"/>
<path id="XMLID_261_" fill="#ED8C73" d="M285.221,78.199c-0.885-0.335-1.67-0.924-2.316-1.647
	c-4.377,7.926-11.951,15.099-20.555,17.033c-4.89,1.1-9.644,0.724-13.988-0.777c2.804,1.524,5.685,2.388,8.555,2.674
	c10.5,1.045,20.848-5.519,26.693-14.729c0.193,0.153,0.398,0.293,0.624,0.404c2.394,1.179,5.67-0.571,7.384-3.912
	C289.795,78.679,287.376,79.013,285.221,78.199z"/>
<path id="XMLID_260_" fill="#F9A184" d="M279.337,165.837c-10.098,0-21.558-0.902-24.842-1.18l2.724-8.864
	c13.669,1.154,27.716,1.462,32.948,0.403c0.596-4.501-3.312-19.651-8.996-34.554l8.461-3.229c3.81,9.982,12.276,34.081,8.627,42.223
	c-1.02,2.274-2.646,3.29-3.834,3.74C291.534,165.479,285.706,165.837,279.337,165.837z"/>
<path id="XMLID_259_" fill="#FF5C54" d="M281.36,102.321c-0.604-0.245-1.371,0.089-2.156,0.679c0.107,0.507,0.188,1.021,0.212,1.551
	c0.381,1.697,0.305,3.393-0.228,5.089c-0.395,1.66-1.156,3.107-2.284,4.34c-0.019,0.029-0.041,0.055-0.061,0.084
	c0.974,4.175,1.825,8.567,2.646,11.961c4.798-0.326,10.394-1.712,13.907-4.337C291.226,112.983,287.074,104.628,281.36,102.321z"/>
<path id="XMLID_258_" opacity="0.08" d="M274.713,147.803c-0.53-2.578,1.041-9.811,2.915-18.037l-27.933,0.498l-0.81,0.597
	l-0.266,0.003l-2.355,1.312l-0.224,19.834c0,0-1.855,1.918-2.553,2.675c-0.698,0.756-0.665,1.828-0.412,2.812
	s-0.292,1.472-0.618,1.921s-0.064,0.617,0.363,2.048c0.427,1.43,0.324,3.511,0.255,3.784c-0.069,0.273,0.079,1.599,0.774,3.087
	c0.382,0.818,0.118,1.475,1.704,2.875c0.07,0.062,0.163,0.118,0.268,0.171l-0.127,11.26l43.539-0.532l0.018-9.901
	c0.836-0.055,1.639-0.121,2.398-0.201C284.088,159.922,275.588,152.056,274.713,147.803z"/>
<path id="XMLID_257_" fill="#4D282D" d="M244.526,125.667l2.7-1.99l35.26-0.629l4.362,2.197c0,0-19.927,2.587-20.161,2.598
	C266.454,127.853,244.526,125.667,244.526,125.667z"/>
<path id="XMLID_256_" fill="#EFEAE1" d="M285.616,125.954l-3.677-2l-35.789,0.323l-2.356,1.312c0,0,20.471,2.205,20.626,2.198
	S285.616,125.954,285.616,125.954z"/>
<polygon id="XMLID_255_" fill="#634444" points="243.794,125.588 243.225,176.055 286.764,175.522 286.848,125.246 "/>
<path id="XMLID_254_" fill="#F9A184" d="M259.473,157.237c0,0-0.834-2.677-3.263-4.782c-2.43-2.104-3.945-4.879-4.474-8.095
	c-0.174-1.062-0.283-2.193-0.763-2.576c-0.973-0.777-1.793,0.584-2.308,2.54c-0.715,2.716,0.596,3.692,0.585,5.419
	c-0.011,1.728-1.113,2.853-2.91,3.115s-2.302-0.67-2.547-1.532l-0.224-5.904c0,0-1.854,1.919-2.553,2.675
	c-0.698,0.757-0.664,1.828-0.412,2.813c0.253,0.984-0.291,1.472-0.617,1.921s-0.064,0.617,0.363,2.047
	c0.427,1.431,0.324,3.512,0.254,3.784c-0.069,0.273,0.079,1.6,0.774,3.088c0.383,0.818,0.118,1.476,1.704,2.875
	c1.218,1.074,7.932,0.751,10.352,0.762c2.495,0.01,6.449-1.167,6.449-1.167L259.473,157.237z"/>
<path id="XMLID_253_" fill="#F9A184" d="M289.687,163.113c-0.933-1.465-1.437-3.046-1.515-4.744
	c-0.139-0.619-0.194-1.237-0.212-1.855c-6.337,0.657-18.905,1.019-30.962,0l-2.502,8.144c3.284,0.277,14.744,1.18,24.842,1.18
	c4.54,0,8.8-0.184,11.923-0.688C290.736,164.471,290.212,163.792,289.687,163.113z"/>
<path id="XMLID_251_" fill="#EACEA4" d="M78.947,35.882c0,0-16.331,0.528-24.931,15.196c-10.474,17.861-6.463,78.033-6.463,78.033
	l63.44-3.647c0,0,5.718-39.867,1.672-60.674C108.619,43.982,94.242,35.604,78.947,35.882z"/>
<path id="XMLID_250_" fill="#ED8C73" d="M78.224,106.931l-0.529-9.924c-0.175-3.288,2.331-6.098,5.569-6.245
	c3.238-0.146,6.031,2.424,6.207,5.712l0.559,10.483C86.093,106.952,82.158,106.933,78.224,106.931z"/>
<path id="XMLID_249_" fill="#F9A184" d="M78.033,39.713c2.786-0.35,5.625-0.268,8.39,0.306c6.116,1.269,11.3,4.736,15.39,9.373
	c1.171,1.328,2.217,2.763,3.141,4.273c0.042,0.069,0.083,0.138,0.125,0.207c8.013,13.349,7.044,35.275-7.287,44.139
	c-3.332,2.061-6.781,3.144-10.2,3.423c-14.299,1.169-28.082-11.719-30.597-26.011C54.402,60.692,61.412,41.798,78.033,39.713z"/>
<path id="XMLID_248_" fill="#DB8575" d="M56.995,75.423C57.101,76.03,56.848,74.822,56.995,75.423L56.995,75.423z"/>
<path id="XMLID_247_" fill="#FFFFFF" d="M79.415,85.016l17.089-1.396c1.009-0.083,1.787,0.937,1.468,1.933
	c-1.479,4.626-4.945,8.005-9.213,8.354c-4.269,0.349-8.248-2.422-10.472-6.746C77.808,86.23,78.406,85.098,79.415,85.016z"/>
<path id="XMLID_246_" fill="#3E1208" d="M101.276,68.805c1.891,0.501,2.844,3.056,2.128,5.707c-0.716,2.65-2.83,4.393-4.721,3.892
	c-1.891-0.501-2.843-3.056-2.127-5.707S99.385,68.304,101.276,68.805z"/>
<path id="XMLID_245_" opacity="0.14" fill="#FFFFFF" d="M103.404,74.512c-0.716,2.65-2.83,4.393-4.721,3.892
	c-1.409-0.374-2.294-1.889-2.359-3.733c2.433-0.73,4.87-1.451,7.309-2.161C103.658,73.148,103.589,73.826,103.404,74.512z"/>
<path id="XMLID_244_" fill="#3E1208" d="M75.356,70.062c1.947,0.333,3.136,2.818,2.655,5.549c-0.48,2.731-2.45,4.674-4.397,4.341
	c-1.947-0.333-3.136-2.817-2.656-5.548C71.44,71.672,73.408,69.729,75.356,70.062z"/>
<path id="XMLID_243_" opacity="0.14" fill="#FFFFFF" d="M78.012,75.611c-0.48,2.731-2.45,4.674-4.397,4.341
	c-1.53-0.262-2.578-1.858-2.729-3.854c2.394-0.878,4.769-1.805,7.126-2.777C78.136,74.034,78.153,74.807,78.012,75.611z"/>
<ellipse id="XMLID_242_" transform="matrix(-0.426 -0.9047 0.9047 -0.426 9.4035 166.6812)" fill="#F9A184" cx="57.58" cy="80.357" rx="6.931" ry="4.899"/>
<path id="XMLID_241_" fill="#ED8C73" d="M59.598,83.652c0.891-0.318,1.686-0.895,2.345-1.605
	c4.236,8.003,11.682,15.309,20.25,17.395c4.87,1.186,9.63,0.895,13.999-0.53c-2.83,1.475-5.725,2.287-8.601,2.522
	c-10.516,0.859-20.747-5.887-26.428-15.2c-0.196,0.15-0.403,0.287-0.631,0.394c-2.414,1.136-5.659-0.672-7.312-4.043
	C55.015,84.052,57.429,84.43,59.598,83.652z"/>
<path id="XMLID_240_" fill="#F4DBB3" d="M112.665,64.79c-4.046-20.808-18.422-29.187-33.718-28.908c0,0-16.331,0.528-24.931,15.196
	c-10.474,17.861-6.463,78.033-6.463,78.033l15.113-0.869c-0.191-19.964,1.824-60.142,1.824-60.142s26.952-5.308,44.967-3.171
	c5.555,20.834,2.928,40.534-1.234,60.694l2.77-0.159C110.992,125.464,116.71,85.598,112.665,64.79z"/>
<path id="XMLID_239_" opacity="0.28" fill="#FFFFFF" d="M101.351,43.538c-4.16,4.385-9.951,7.089-15.973,8.925
	c-5.44,1.659-11.116,2.093-16.75,1.334c-4.871-0.656-9.177-2.605-13.691-4.188c-0.315,0.474-0.624,0.961-0.921,1.469
	c-0.886,1.511-1.667,3.332-2.356,5.386c3.084,1.041,6.346,1.714,8.927,2.369c8.168,2.073,16.563,2.933,24.984,2.699
	c8.262-0.229,16.943-1.296,25.292-3.436C108.676,51.85,105.372,47.053,101.351,43.538z"/>
<path id="XMLID_238_" fill="#D84A4A" d="M45.746,126.665c-1.405-0.392-3.942-1.746-4.538-4.338c-0.642-2.797,1.038-5.915,5.136-9.53
	c3.215-2.837,6.579-4.043,9.984-3.597c5.859,0.775,9.545,6.248,9.698,6.48l-2.794,1.85c-0.027-0.041-3.023-4.448-7.361-5.01
	c-2.401-0.313-4.859,0.627-7.309,2.789c-4.147,3.659-4.239,5.602-4.086,6.267c0.29,1.262,2.152,1.854,2.17,1.86L45.746,126.665z"/>
<path id="XMLID_237_" fill="#E05451" d="M89.102,131.432c0,0-7.237-23.175-31.915-16c-24.678,7.174-43.949,81.328-29.077,94.105
	c14.872,12.778,44.591,3.266,51.098-12.61C85.716,181.048,89.102,131.432,89.102,131.432z"/>
<path id="XMLID_236_" fill="#EF8E73" d="M101.061,353.969l18.602,12.172l7.17,0.963c1.542,0.206,2.345,1.946,1.502,3.254l0,0
	c-0.928,1.44-2.525,2.312-4.239,2.312H87.272l-1.766-7.935l3.457-18.097l12.098,1.151V353.969z"/>
<path id="XMLID_235_" fill="#FBA386" d="M67.173,350.285l-6.62,18.928c-0.747,2.136,0.838,4.368,3.1,4.368h15.901
	c2.015,0,3.555-1.799,3.244-3.79l-3.167-20.3L67.173,350.285z"/>
<path id="XMLID_234_" fill="#585E63" d="M127.122,365.485l-7.332-0.729l-8.728-5.829c-3.589,3.46-10.924,5.051-15.063,4.235
	c-3.155-0.624-6.634-2.101-8.969-4.164c-0.493-0.437-1.276-0.141-1.389,0.507l-0.902,5.181l0.737,3.506l1.009,4.805l37.611-0.328
	c1.714,0,3.714-0.466,4.643-1.907C129.58,369.454,128.664,365.691,127.122,365.485z"/>
<path id="XMLID_233_" fill="#585E63" d="M80.404,357.608c-3.305,1.087-12.349,0.32-15.311-0.566
	c-0.573-0.172-1.175,0.161-1.356,0.731l-3.716,11.661c-0.747,2.135,1.021,4.539,3.282,4.539H79.92c2.016,0,3.802-2.338,3.492-4.329
	l-1.824-11.317C81.499,357.771,80.938,357.433,80.404,357.608z"/>
<path id="XMLID_232_" fill="#ED8C73" d="M54.46,125.059c0,0-4.952,12.185-4.562,27.663l8.386,1.354c0,0,6.776-16.612,4.875-23.062
	C61.26,124.562,54.46,125.059,54.46,125.059z"/>
<path id="XMLID_231_" fill="#ED8C73" d="M116.901,121.013c0,0,12.722,22.682,9.327,29.825c-3.395,7.144-12.698-2.483-12.698-2.483
	l-3.38-21.221L116.901,121.013z"/>
<path id="XMLID_230_" fill="#ED8C73" d="M82.626,106.208c20.77,0,26.624,1.25,31.428,15.904c-3.089,2.266-6.155,4.572-9.213,6.894
	h-50.5c-0.493-0.431-0.98-0.87-1.46-1.321C55.369,112.612,56.615,106.208,82.626,106.208z"/>
<path id="XMLID_229_" fill="#91E2D5" d="M74.103,106.07c3.927,10.536,18.289,12.41,18.948,0.174
	c16.447,0.202,19.042,8.87,21.908,18.815c-8.711,9.403-19.995,15.089-32.333,15.089c-11.146,0-21.438-4.636-29.745-12.464
	C54.145,120.027,52.324,107.425,74.103,106.07z"/>
<path id="XMLID_228_" fill="#91E2D5" d="M103.072,108.152c8.198,2.623,15.913,13.228,15.913,13.228l-4.026,3.679l-12.773-6.203
	c0,0-0.403,0.182-0.87-0.077C103.654,115.8,103.526,111.886,103.072,108.152z"/>
<path id="XMLID_227_" fill="#5B768E" d="M118.478,180.047c0,0,6.175,31.595-5.195,81.666c-3.643,16.043-6.258,37.675-7.038,47.403
	c-1.653,20.635-4.294,43.859-4.294,43.859H86.764c0,0-8.306-65.373-0.072-88.157c0,0-8.823-29.96-2.349-82.621L118.478,180.047z"/>
<path id="XMLID_226_" fill="#6B86A3" d="M90.75,223.008c0.296-12.837-0.529-23.653-0.529-23.653s-0.274-0.096-0.765-0.258
	c-0.801-10.146-1.646-17.165-1.646-17.165s-34.486-24.861-37.508,4.773c-1.636,16.043,2.472,42.597,9.23,62.193
	c2.722,7.895,3.433,16.365,1.965,24.585c-7.669,42.938,4.319,77.816,4.319,77.816l14.743,0.824
	c4.006-29.211,5.665-54.093,6.297-71.019c0.309-8.263,1.021-16.506,2.371-24.662C90.788,246.997,91.054,234.797,90.75,223.008z"/>
<path id="XMLID_225_" fill="#91E2D5" d="M110.217,142.233c0,0-0.067,7.935,5.272,19.053c6.598,13.74,9.62,35.048,9.62,35.048
	s0.915,6.205-37.819,5.349c-37.135-0.821-42.251-9.885-42.251-9.885s2.933-14.334,10.346-26.104
	c7.684-12.201,11.668-20.866,11.668-20.866L110.217,142.233z"/>
<path id="XMLID_224_" opacity="0.1" d="M67.052,144.827l42.416-2.549l0.22,5.461c0.335-0.401,0.605-0.791,0.793-1.144
	c0.048-0.089,0.104-0.138,0.158-0.188c0.181,1.102,0.441,2.4,0.811,3.862c-0.468,1.182-1.136,2.198-1.136,2.198
	s0.736-0.227,1.634-0.371c0.778,2.674,1.903,5.78,3.541,9.189c0.486,1.012,0.95,2.067,1.397,3.15
	c-0.823,0.239-1.691,0.434-2.606,0.574c-0.189,0.476-0.405,0.904-0.57,1.027c-0.32,0.239-2.604,0.827-2.604,0.827
	s0.397,1.636-0.225,2.66c-0.042,0.069-0.16,0.128-0.309,0.183l0.522,12.983l-43.608,4.195l-2.408-1.978l-1.54-16.516
	C60.207,168.24,67.052,144.827,67.052,144.827z"/>
<path id="XMLID_223_" fill="#ED645A" d="M76.433,144.264l-9.381,0.563c0,0-4.602,7.21-12.286,19.411
	c-2.331,3.701-3.604,7.578-5.094,12.794C62.647,166.082,71.592,155.119,76.433,144.264z"/>
<path id="XMLID_222_" fill="#ED645A" d="M76.552,106.208c-2.998-1.166-10.998-0.78-13.577,2.174c1.983,2.349,6.327,8.6,5.976,18.013
	c-0.127,3.396-0.871,6.898-2.207,10.479c3.635,1.547,7.458,2.571,11.413,3.017c1.55-4.491,2.398-8.962,2.526-13.402
	c0.162-5.606-0.38-10.154-1.566-14.252C78.491,110.068,77.485,108.711,76.552,106.208z"/>
<polygon id="XMLID_221_" fill="#6D615C" points="109.401,116.658 111.809,118.635 111.624,171.899 70.424,178.073 68.016,176.096 
	62.91,121.354 "/>
<polygon id="XMLID_220_" fill="#EFE7D0" points="108.623,117.787 110.954,119.702 110.775,171.255 70.898,177.23 68.567,175.315 
	63.625,122.333 "/>
<polygon id="XMLID_219_" opacity="0.08" points="87.232,137.389 110.954,119.702 110.775,171.255 70.898,177.23 68.567,175.315 
	63.625,122.333 "/>
<polygon id="XMLID_218_" fill="#7F716A" points="111.809,118.635 114.032,173.877 70.424,178.073 65.318,123.332 "/>
<path id="XMLID_217_" fill="#ED8C73" d="M84.593,150.266c2.693-0.018,7.068,0.127,9.459-2.281c2.391-2.408,5.958-5.445,10.392-5.275
	c4.434,0.171,7.917-2.953,8.975-4.927c0.524-0.978,1.563,0.412,1.396,2.093c-0.167,1.68-1.563,3.779-1.563,3.779
	s3.827-1.18,4.661,0.125s-1.987,4.384-1.987,4.384s3.281,0.495,3.047,1.354c-0.234,0.858,0.028,2.812-0.746,3.075
	c-0.774,0.262-1.88,0.938-1.88,0.938s1.409,0.751,1.269,1.415c-0.14,0.664-0.648,2.039-0.969,2.278
	c-0.321,0.239-2.604,0.827-2.604,0.827s0.396,1.636-0.225,2.659c-0.491,0.81-8.747,0.569-12.177,0.433
	c-0.92-0.036-1.809-0.306-2.604-0.771c-1.292-0.755-4.072-2.396-5.765-2.432c-2.591-0.056-9.032,0.669-9.032,0.669L84.593,150.266z"
	/>
<path id="XMLID_216_" fill="#ED8C73" d="M98.491,149.856l-0.193,7.265c0,0-37.85,6.615-46.708-1.466
	C39.176,144.332,98.491,149.856,98.491,149.856z"/>
<path id="XMLID_215_" fill="#F9A184" d="M89.963,143.222c-2.665-0.392-7.017-0.855-9.051-3.573c-2.033-2.717-5.143-6.22-9.558-6.668
	c-4.415-0.447-7.429-4.024-8.203-6.126c-0.383-1.041-1.605,0.191-1.673,1.878c-0.067,1.687,1.023,3.961,1.023,3.961
	s-3.626-1.7-4.634-0.524c-1.007,1.176,1.359,4.617,1.359,4.617s-3.318,0.035-3.206,0.918c0.112,0.883-0.419,2.782,0.311,3.148
	c0.73,0.367,1.731,1.19,1.731,1.19s-1.5,0.549-1.453,1.226c0.046,0.678,0.358,2.109,0.642,2.392c0.285,0.281,2.465,1.18,2.465,1.18
	s-0.62,1.565-0.147,2.666c0.374,0.87,8.583,1.778,11.999,2.12c0.917,0.091,1.834-0.052,2.686-0.401
	c1.385-0.568,4.366-1.808,6.047-1.608c2.574,0.307,8.852,1.919,8.852,1.919L89.963,143.222z"/>
<path id="XMLID_214_" fill="#FBA386" d="M76.257,140.886l-0.818,7.222c0,0,37.357,14.648,48.763,5.338
	C137.217,142.82,76.257,140.886,76.257,140.886z"/>
<path id="XMLID_213_" fill="#62696D" d="M60.553,369.213c0,0-0.009-7.785,10.867-8.059s11.085,7.582,11.085,7.582L60.553,369.213z"
	/>
<polygon id="XMLID_212_" fill="#44494C" points="59.324,368.308 83.835,367.76 83.835,374.006 59.322,374.006 59.271,368.403 "/>
<polygon id="XMLID_211_" fill="#44494C" points="84.802,368.108 129.553,368.527 129.553,372.717 86.021,374.393 "/>
<path id="XMLID_210_" fill="#D84A4A" d="M35.023,175.182c0,0-3.568-3.364-10.023-3.184c-6.455,0.183-7.93,21.537-2.095,27.059
	C28.739,204.579,34.744,186.562,35.023,175.182z"/>
<path id="XMLID_209_" fill="#58738C" d="M443.154,100.375c0,0-6.046-1.127-9.082,4.214c-3.038,5.342-6.864,19.668-6.864,19.668
	l12.729-15.164L443.154,100.375z"/>
<path id="XMLID_208_" fill="#E68069" d="M413.088,230.034c0,0,9.774-0.396,11.464,2.229c0.782,1.214-9.207-0.141-9.207-0.141
	L413.088,230.034z"/>
<path id="XMLID_207_" fill="#E68069" d="M414.286,231.142c0,0,4.46-5.316,6.58-4.362c1.021,0.458-5.212,5.629-5.212,5.629
	L414.286,231.142z"/>
<path id="XMLID_206_" fill="#ED8C73" d="M427.028,133.835c-1.848,9.001-4.196,17.866-6.992,23.273
	c-9.382,18.142-13.694,52.363-13.694,52.363l4.342,1.262c0,0,16.976-35.941,18.986-44.971c0.924-4.148,2.364-16.491,3.652-28.624
	C431.21,136.062,429.113,134.961,427.028,133.835z"/>
<path id="XMLID_205_" fill="#ED8C73" d="M406.341,209.472c-0.974,6.298,2.047,23.65,2.047,23.65l11.232,10.399
	c1.236-1.335-7.103-10.471-7.103-10.471s9.3,7.959,9.769,7.479c1.557-1.595-6.755-9.087-6.755-9.087l0.373-12.202
	c0,0,3.975,3.842,7.874,5.087c2.415,0.771,3.693-1.822,3.693-1.822s-6.127-3.056-8.96-6.36c-2.119-2.472-8.588-8.122-8.588-8.122
	S406.489,208.517,406.341,209.472z"/>
<path id="XMLID_204_" fill="#9EB7B7" d="M461.648,125.428c0,0,11.455-21.406,34.35-9.73c22.895,11.675,27.915,88.127,10.91,97.889
	c-17.006,9.762-44.412-5.156-47.826-21.972S461.648,125.428,461.648,125.428z"/>
<path id="XMLID_203_" fill="#8AADAB" d="M471.925,209.018c2.171-0.197,4.382-0.692,6.631-1.553c2.035-0.778,3.941-1.719,5.739-2.782
	c7.083-8.74,11.497-20.032,12.421-30.607c1.696-19.426-6.591-41.315-22.625-53.061c-0.373-0.085-0.748-0.164-1.125-0.235
	c-0.906-0.169-1.586-0.549-2.073-1.052c-1.755-0.188-3.493-0.133-5.151,0.291c-2.729,2.86-4.094,5.41-4.094,5.41
	s-5.98,49.372-2.566,66.187C460.409,198.152,465.366,204.396,471.925,209.018z"/>
<path id="XMLID_200_" fill="#505656" d="M506.743,145.649c-0.452,0.062-0.862-0.253-0.937-0.703
	c-3.86-23.668-31.141-31.839-33.592-31.903c-0.003-0.002,0.083,0.002,0.19-0.034l-0.125-0.382c-0.2-0.612,0.331-1.216,0.96-1.084
	c2.776,0.581,9.103,2.808,15.188,6.612c7.521,4.699,16.845,13.089,19.032,26.531C507.537,145.148,507.207,145.585,506.743,145.649
	L506.743,145.649z"/>
<path id="XMLID_190_" fill="#8AADAB" d="M503.407,170.044c0,0,11.731-2.402,19.062,2.717c5.295,3.698-3.869,30.82-10.636,35.149
	C505.067,212.24,501.546,181.275,503.407,170.044z"/>
<path id="XMLID_189_" fill="#7D7D7D" d="M424.924,343.615c0,0-0.838,12.417-5.866,16.29c-5.026,3.874,13.407,7.924,16.2,4.852
	s4.469-6.703,4.469-6.703s-1.955-2.234-2.095-6.424s0.978-9.077,0.978-9.077L424.924,343.615z"/>
<path id="XMLID_188_" fill="#242B2B" d="M418.78,355.226c0,0-4.312,3.639-9.322,6.337c-7.161,3.857-11.59,5.504-11.869,6.9
	c-0.28,1.396-0.035,2.8-0.035,2.8h44.688c0,0,0.619-14.914-2.064-15.193c-2.684-0.278-10.085,6.647-12.599,5.251
	S418.78,355.226,418.78,355.226z"/>
<polygon id="XMLID_187_" fill="#3E4242" points="443.179,370.203 396.678,371.041 396.277,374.38 423.32,375.23 425.594,373.714 
	427.132,374.92 443.179,374.92 "/>
<path id="XMLID_185_" fill="#7D7D7D" d="M463.467,344.453c0,0-0.838,12.417-5.865,16.291c-5.027,3.873,13.406,7.923,16.199,4.851
	s4.47-6.703,4.47-6.703s-1.956-2.234-2.095-6.424c-0.141-4.189,0.977-9.077,0.977-9.077L463.467,344.453z"/>
<path id="XMLID_184_" fill="#2A3232" d="M457.323,356.063c0,0-4.312,3.639-9.321,6.337c-7.162,3.857-11.592,5.543-11.87,6.939
	c-0.279,1.396-0.036,2.837-0.036,2.837h44.689c0,0,0.618-14.952-2.065-15.23c-2.684-0.279-10.085,6.628-12.599,5.231
	S457.323,356.063,457.323,356.063z"/>
<polygon id="XMLID_183_" fill="#474F4F" points="481.583,371.041 435.151,371.879 434.786,375.218 461.845,376.068 464.128,374.59 
	465.676,375.834 481.583,375.834 "/>
<path id="XMLID_182_" fill="#2A3232" d="M420.152,272.565c1.5,14.508,1.561,54.695,1.771,72.501h21.145
	c2.413-16.483,4.323-65.582,2.609-74.573c-1.714-8.99,1.041-30.008,5.539-46.559c2.512-9.235,6.813-20.588,7.972-29.561
	c-7.446-2.014-14.775-4.39-22.009-7.034c-6.074-2.22-12.347,0.657-18.485-2.402c-3.066,10.516-5.781,32.183-2.436,53.505
	C419.312,257.911,418.652,258.059,420.152,272.565z"/>
<path id="XMLID_181_" fill="#323D3D" d="M458.79,345.066l22.413,1.361c1.784-15.396,5.577-50.274,3.567-59.552
	c-3.253-15.021-3.854-19.84-3.426-29.034c0.429-9.195,4.02-30.174,5.305-46.315c0.968-12.158-0.224-16.271-8.585-28.911
	c-0.187,0.059-14.539,4.781-24.326,4.921c-0.511,0.008-1.02,0.005-1.529,0.005c-4.597,4.482-8.206,0.435-7.978,8.17
	c0.428,14.508,7.688,52.679,9.77,63.172C456.937,273.678,459.944,323.281,458.79,345.066z"/>
<path id="XMLID_179_" fill="#6B86A3" d="M425.85,159.867c0.144,1.253-14.298,29.455-14.298,29.455
	c6.797,4.786,8.186,10.268,35.192,10.997c22.65,0.613,35.145-5.98,42.858-9.426c0,0-12.947-26.161-20.55-35.192
	C461.452,146.671,425.85,159.867,425.85,159.867z"/>
<path id="XMLID_178_" fill="#451F1E" d="M457.554,28.602c0,0,5.945-12.265,25.267-7.496c18.014,4.446,13.12,65.43,6.93,105.068
	l-40.067,0.509C449.683,126.683,445.264,37.441,457.554,28.602z"/>
<path id="XMLID_177_" opacity="0.24" d="M480.306,40.164c-5.881-6.448-12.525-12.066-21.188-13.782
	c-1.516,0.975-1.564,2.22-1.564,2.22c-12.29,8.84-7.871,98.081-7.871,98.081l23.577,0c8.828-11.825,13.607-48.926,13.062-74.634
	C484.743,47.006,484.071,44.294,480.306,40.164z"/>
<path id="XMLID_176_" fill="#F9A184" d="M467.223,100.113c-0.45-0.023-0.9-0.048-1.346-0.066c-0.171-0.007-0.348-0.019-0.519-0.025
	c-0.001,0.001-0.003,0.008-0.004,0.01c-8.006-0.303-15.216,0.303-19.98,0.339c-0.681,3.802-3.737,6.87-7.23,9.152
	c-0.526,0.75-1.062,1.499-1.615,2.261c-4.726,6.496-7.495,10.774-4.455,19.014c2.99,8.106-0.259,15.273-3.294,22.771
	c12.554-1.856,25.396-1.96,38.053-1.28c-0.318-6.982,3.327-14.048,4.713-20.812c1.249-6.1,2.855-12.394,4.257-18.701
	C472.016,109.09,468.832,104.907,467.223,100.113z"/>
<path id="XMLID_175_" fill="#512622" d="M459.003,23.689c-9.32,0-31.729,4.913-29.917,40.061
	c1.908,37.016,32.494,30.49,32.494,30.49s21.554-2.42,23.827-34.029C487.681,28.602,469.494,23.689,459.003,23.689z"/>
<path id="XMLID_174_" fill="#F9A184" d="M461.741,101.168l0.503-10.373c0.18-3.731-2.403-6.92-5.741-7.086s-6.216,2.75-6.396,6.481
	l-0.532,10.978H461.741z"/>
<path id="XMLID_173_" fill="#ED8C73" d="M461.932,97.226l0.312-6.43c0.18-3.731-2.403-6.92-5.741-7.086s-6.216,2.75-6.396,6.481
	l-0.208,6.77C451.824,98.22,458.625,99.301,461.932,97.226z"/>
<path id="XMLID_172_" fill="#6B86A3" d="M480.334,101.359c-1.938-0.322-10.561-1.413-15.016-1.629
	c-6.075,11.596-18.503,11.796-18.503,0.217c-0.407,0.007-3.662,0.429-3.662,0.429s-6.883,10.708-14.374,19.646
	c-6.547,7.813,1.266,15.21,1.266,15.21l-8.813,21.796c0,0,2.741,3.541,9.366,3.541c3.312,0,13.82-2.856,13.82-2.856
	s6.239,5.116,14.847,3.998c8.795-1.142,14.049-3.654,14.049-3.654s-1.476-3.929-1.827-8.452
	C470.496,136.833,480.334,101.359,480.334,101.359z"/>
<path id="XMLID_171_" opacity="0.2" d="M478.559,108.094c-4.012,5.523-9.2,10.221-15.077,13.972
	c-4.085,2.607-8.455,3.99-12.958,4.613c-1.499,2.784-2.977,5.586-4.393,8.419c0-2.66,0.042-5.346,0.099-8.041
	c-6.262,0.237-12.689-0.729-18.924-1.822c-0.577,5.022,1.535,8.404,2.383,9.541c0.1,0.001,0.198,0.018,0.298,0.021
	c8.342-1.062,17.544,2.19,23.945,7.164c6.752,5.246,10.856,11.064,12.404,18.407c4.444-1.116,6.978-2.312,6.978-2.312
	s-1.476-3.929-1.827-8.452C470.765,140.312,475.775,119.015,478.559,108.094z"/>
<path id="XMLID_170_" fill="#F9A184" d="M484.384,106.841c-2.744,3.456-5.852,6.397-9.333,9.074l3.508,36.792l10.591,1.314
	C491.529,148.25,489.253,119.135,484.384,106.841z"/>
<path id="XMLID_168_" fill="#6B86A3" d="M484.101,123.875c1.273-0.654,3.925-2.054,5.246-2.633
	c-1.621-10.688-5.685-19.296-9.198-19.866c-1.957-0.317-5.662,8.607-5.662,8.607l0.746,18.387
	C478.21,126.919,481.152,125.389,484.101,123.875z"/>
<path id="XMLID_167_" fill="#F9A184" d="M455.226,95.462c-3.438,0.14-7.003-0.551-10.568-2.271
	c-15.336-7.401-18.946-30.052-12.577-44.924c0.032-0.076,0.065-0.154,0.099-0.23c0.736-1.684,1.604-3.307,2.611-4.833
	c3.512-5.33,8.255-9.583,14.191-11.67c2.682-0.944,5.499-1.387,8.314-1.375c16.8,0.074,26.056,18.814,25.252,34.44
	C481.77,79.757,469.602,94.876,455.226,95.462z"/>
<path id="XMLID_166_" fill="#F9A184" d="M486.086,71.87c-1.213,3.825-4.298,6.201-6.89,5.307c-2.592-0.895-3.711-4.722-2.498-8.547
	c1.213-3.826,4.298-6.202,6.891-5.307S487.3,68.044,486.086,71.87z"/>
<path id="XMLID_165_" fill="#B4CCCB" d="M487.209,186.179c-2.864-11.624-9.306-23.774-16.936-28.938
	c-0.69-0.769-1.364-1.541-2.014-2.323c-2.972-2.454-8.603-2.747-14.813-2.04C462.625,168.774,481.394,182.247,487.209,186.179z"/>
<path id="XMLID_161_" fill="#B4CCCB" d="M471.649,158.739c-7.325-7.805-13.141-16.554-12.398-23.966
	c1.558-15.544,13.523-28.751,18.653-33.76c-2.775-1.714-9.485-2.622-14.11-1.284c-1.967,2.294-5.04,7.276-5.04,7.276
	c-4.859,7.232-9.312,16.409-10.342,26.682c-0.968,9.671,4.219,19.456,11.179,27.976
	C465.313,160.891,469.493,159.552,471.649,158.739z"/>
<path id="XMLID_158_" fill="#ED8C73" d="M478.575,72.333c-4.255,10.306-12.633,26.146-37.31,18.83
	c1.062,0.759,2.187,1.446,3.393,2.028c3.565,1.721,7.131,2.412,10.568,2.271c10.28-0.418,19.428-8.27,24.093-18.253
	c2.566,0.781,5.574-1.574,6.768-5.339c0.095-0.297,0.17-0.594,0.236-0.891C485.892,71.5,483.297,77.365,478.575,72.333z"/>
<path id="XMLID_152_" fill="#ED8C73" d="M479.095,70.25c0,0,0.853-6.223,5.358-4.656c0,0-2.748,1.275-2.679,5.006L479.095,70.25z"/>
<path id="XMLID_150_" fill="#512622" d="M459.003,23.689c-9.32,0-31.729,4.913-29.917,40.061c0,0,0.953-15.925,10.854-23.799
	c6.39-5.082,9.615,3.049,14.551,2.71c9.581-0.658,11.223-6.776,17.532-2.372c3.895,2.718,5.427,18.849,6.401,23.46
	c0.856,4.052,4.17-0.615,4.17-0.615C484.869,31.525,469.494,23.689,459.003,23.689z"/>
<path id="XMLID_148_" opacity="0.11" d="M470.274,157.241c-0.418-0.552-1.024-1.073-1.417-1.54c-0.238-0.282-0.075-0.723-0.99-0.962
	v-0.181c0,0,0.393,0,0.392,0c-0.168,0-0.349-0.09-0.534-0.216c-0.057-0.038-0.115,0.016-0.173-0.021
	c-0.137-0.088-0.278-0.127-0.424-0.207c-0.064-0.036-0.13-0.051-0.197-0.085c-0.161-0.084-0.327-0.153-0.497-0.228
	c-0.05-0.023-0.099-0.041-0.149-0.063c-0.224-0.096-0.456-0.184-0.695-0.268c-0.04-0.014-0.082-0.024-0.123-0.038
	c-0.202-0.068-0.408-0.131-0.62-0.191c-0.071-0.021-0.144-0.038-0.217-0.058c-0.195-0.052-0.395-0.101-0.598-0.145
	c-0.067-0.016-0.134-0.03-0.202-0.045c-0.55-0.115-1.124-0.207-1.721-0.276c-0.047-0.005-0.094-0.01-0.141-0.015
	c-0.257-0.027-0.518-0.052-0.783-0.073c-0.062-0.005-0.125-0.009-0.188-0.014c-0.283-0.02-0.57-0.035-0.861-0.047
	c-0.026-0.002-0.051-0.003-0.077-0.004c-0.668-0.024-1.356-0.028-2.061-0.013c-0.03,0.001-0.061,0.002-0.091,0.002
	c-0.331,0.009-0.664,0.021-1,0.038c-0.023,0-0.047-0.072-0.07-0.072c-1.099,0.056-2.232,0.209-3.386,0.209c-0.001,0-0.213,0-0.213,0
	v0.074c-12.802,1.434-27.492,7.026-27.492,7.026c0.044,0.378-1.191,3.215-3.004,6.983c0.206,0.082,0.373,0.142,0.373,0.142
	s-0.428,0.326-0.752,0.725c-0.106,0.221-0.206,0.439-0.315,0.666c-0.006,0.07-0.004,0.141,0.021,0.205
	c0.233,0.646,0.938,1.95,1.292,2.145c0.355,0.195,2.726,0.459,2.726,0.459s-0.166,1.694,0.6,2.632
	c0.229,0.279,1.542,0.253,3.271,0.079l1.013,9.56l39.642-0.615v0.01l0.096-0.01l1.835-0.027l-0.136-1.45l1.562-1.401l3.472,0.171
	l-1.009-11.207c1.332-0.018,2.609-0.044,3.819-0.079C477.381,163.89,473.969,159.743,470.274,157.241z"/>
<path id="XMLID_143_" opacity="0.08" fill="#FFFFFF" d="M435.796,44.321c1.17-1.6,2.537-3.092,4.145-4.37
	c0.118-0.095,0.234-0.176,0.352-0.262c0.319-4.288,1.968-8.571,4.151-12.303c-2.495,1.37-4.943,3.221-7.133,5.691
	C436.469,36.793,435.629,40.463,435.796,44.321z"/>
<path id="XMLID_142_" opacity="0.08" fill="#FFFFFF" d="M459.803,25.002c0.483-0.418,0.98-0.809,1.483-1.186
	c-0.78-0.083-1.545-0.127-2.284-0.127c-1.689,0-3.812,0.166-6.141,0.64c-0.274,0.286-0.558,0.558-0.822,0.858
	c-2.795,3.172-5.92,8.27-6.82,13.227c1.88,0.431,3.52,1.804,5.197,2.875C451.265,35.038,455.583,28.661,459.803,25.002z"/>
<path id="XMLID_141_" fill="#FFFFFF" d="M461.451,77.673l-16.401-0.484c-0.969-0.028-1.665,1.1-1.314,2.138
	c1.627,4.824,5.098,8.208,9.194,8.33c4.097,0.12,7.773-3.053,9.699-7.772C463.043,78.868,462.419,77.701,461.451,77.673z"/>
<path id="XMLID_140_" fill="#3E1208" d="M441.375,60.562c-1.92-0.493-4.087,1.372-4.84,4.165c-0.753,2.794,0.194,5.458,2.114,5.952
	c1.92,0.493,4.088-1.372,4.84-4.165C444.243,63.721,443.296,61.057,441.375,60.562z"/>
<path id="XMLID_136_" opacity="0.09" fill="#FFFFFF" d="M443.045,66.765c-1.628-1.667-3.3-3.298-4.909-4.984
	c-0.704,0.742-1.28,1.759-1.601,2.947c-0.753,2.794,0.194,5.458,2.114,5.952c1.795,0.461,3.805-1.139,4.674-3.631
	C443.231,66.954,443.138,66.86,443.045,66.765z"/>
<path id="XMLID_131_" fill="#3E1208" d="M467.166,60.562c-1.92-0.493-4.087,1.372-4.84,4.165c-0.754,2.794,0.193,5.458,2.113,5.952
	c1.921,0.493,4.088-1.372,4.841-4.165S469.086,61.057,467.166,60.562z"/>
<path id="XMLID_130_" opacity="0.09" fill="#FFFFFF" d="M468.835,66.765c-1.628-1.667-3.3-3.298-4.91-4.984
	c-0.703,0.742-1.28,1.759-1.6,2.947c-0.754,2.794,0.193,5.458,2.113,5.952c1.796,0.461,3.806-1.139,4.675-3.631
	C469.022,66.954,468.928,66.86,468.835,66.765z"/>
<polygon id="XMLID_128_" fill="#614640" points="471.956,170.044 467.503,120.665 426.474,119.111 419.946,124.407 427.779,129.903 
	432.095,168.071 "/>
<polygon id="XMLID_110_" fill="#F2F0D5" points="427.45,121.242 422.244,125.098 460.696,124.31 465.294,172.761 469.597,168.871 
	465.281,122.914 "/>
<polygon id="XMLID_49_" opacity="0.08" points="460.696,124.31 465.294,172.761 469.597,168.871 465.281,122.914 "/>
<polygon id="XMLID_17_" fill="#73544A" points="419.946,124.407 425.567,173.367 467.097,172.725 461.747,123.551 "/>
<path id="XMLID_6_" fill="#F9A184" d="M450.574,150.498c-2.698,0.363-8.65-0.226-11.384-2.299s-6.732-4.61-11.146-3.813
	c-4.415,0.796-8.341-1.84-9.68-3.666c-0.662-0.904-1.507,0.634-1.102,2.291c0.404,1.658,2.099,3.563,2.099,3.563
	s-3.997-0.641-4.649,0.783c-0.65,1.423,2.607,4.108,2.607,4.108s-2.858,1.784-2.504,2.61c0.355,0.827,0.014,1.993,0.825,2.146
	c0.812,0.154,2.014,0.675,2.014,0.675s-1.304,0.951-1.069,1.596c0.234,0.646,0.937,1.95,1.291,2.145
	c0.355,0.194,2.725,0.459,2.725,0.459s-0.167,1.694,0.6,2.632c0.605,0.741,8.836-0.666,12.249-1.285
	c0.916-0.166,1.769-0.562,2.499-1.14c1.187-0.938,3.738-2.974,5.427-3.248c2.586-0.42,9.137-0.604,9.137-0.604L450.574,150.498z"/>
<path id="XMLID_1_" fill="#F9A184" d="M436.367,151.647c0,0,34.679-6.846,45.927-3.81c11.247,3.035,7.411,8.117,2.407,10
	c-5.004,1.882-44.982,0.755-50.489,0C428.706,157.082,436.367,151.647,436.367,151.647z"/>
</svg>
